<?xml version="1.0" encoding="UTF-8"?>
<svg width="23px" height="31px" viewBox="0 0 23 31" version="1.1" xmlns="http://www.w3.org/2000/svg" xmlns:xlink="http://www.w3.org/1999/xlink">
    <!-- Generator: Sketch 49 (51002) - http://www.bohemiancoding.com/sketch -->
    <title>001-shopping-bag-1</title>
    <desc>Created with Sketch.</desc>
    <defs></defs>
    <g id="Symbols" stroke="none" stroke-width="1" fill="none" fill-rule="evenodd">
        <g id="001-shopping-bag-1" transform="translate(-1.000000, -1.000000)" fill="#ED1C24">
            <g transform="translate(1.000000, 2.000000)">
                <polygon id="Rectangle" points="2.5 5 20.5 5 23 30 0 30"></polygon>
                <path d="M16.534293,11 C16.2772227,11 16.0685859,10.7833846 16.0685859,10.5164835 L16.0685859,5.71032967 C16.0685859,3.09547253 14.019475,0.967032967 11.5,0.967032967 C8.98052498,0.967032967 6.93141406,3.09547253 6.93141406,5.71032967 L6.93141406,10.5164835 C6.93141406,10.7833846 6.72277731,11 6.46570703,11 C6.20863675,11 6,10.7833846 6,10.5164835 L6,5.71032967 C6,2.56167033 8.46731583,0 11.5,0 C14.5326842,0 17,2.56167033 17,5.71032967 L17,10.5164835 C17,10.7833846 16.7922947,11 16.534293,11 Z" id="Shape" stroke="#ED1C24" stroke-width="2" fill-rule="nonzero"></path>
            </g>
        </g>
    </g>
</svg>