<?xml version="1.0" encoding="UTF-8"?>
<svg width="265px" height="177px" viewBox="0 0 265 177" version="1.1" xmlns="http://www.w3.org/2000/svg" xmlns:xlink="http://www.w3.org/1999/xlink">
    <!-- Generator: Sketch 55.1 (78136) - https://sketchapp.com -->
    <title>Group 15</title>
    <desc>Created with Sketch.</desc>
    <defs>
        <path d="M0,0 L257,0 C244.638702,18.3208441 238.458054,37.9875107 238.458054,59 C238.458054,79.7060035 235.94573,100.417317 230.921081,121.133941 L230.921081,121.133941 C230.783754,121.700142 230.660585,122.269684 230.551691,122.842034 C227.829888,137.147882 220.978765,144.978221 209.998322,146.333051 C193.227655,148.402312 192.75,106.111987 165.583893,103.487211 C138.417785,100.862435 147.473154,124.971657 108.66443,129.928201 C69.8557047,134.884746 90.1224832,169 70.2869128,169 C50.4513423,169 49.002074,132.469326 44.4144295,129.928201 C43.8457831,129.613225 42.8470668,129.217875 41.4182809,128.742154 L41.4182805,128.742155 C26.4229086,123.749367 16.4376179,109.560036 16.800337,93.7594805 C17.444664,65.6916858 17.1627843,47.2261413 15.954698,38.362847 C14.3789454,26.8021175 9.06071271,14.0145018 0,0 Z" id="path-1"></path>
        <filter x="-2.7%" y="-3.0%" width="105.4%" height="108.3%" filterUnits="objectBoundingBox" id="filter-2">
            <feOffset dx="0" dy="2" in="SourceAlpha" result="shadowOffsetOuter1"></feOffset>
            <feGaussianBlur stdDeviation="2" in="shadowOffsetOuter1" result="shadowBlurOuter1"></feGaussianBlur>
            <feComposite in="shadowBlurOuter1" in2="SourceAlpha" operator="out" result="shadowBlurOuter1"></feComposite>
            <feColorMatrix values="0 0 0 0 0   0 0 0 0 0   0 0 0 0 0  0 0 0 0.5 0" type="matrix" in="shadowBlurOuter1"></feColorMatrix>
        </filter>
    </defs>
    <g id="Symbols" stroke="none" stroke-width="1" fill="none" fill-rule="evenodd">
        <g id="Group-15" transform="translate(4.000000, 2.000000)">
            <g>
                <g id="Rectangle-2-Copy">
                    <use fill="black" fill-opacity="1" filter="url(#filter-2)" xlink:href="#path-1"></use>
                    <path stroke="#FAC939" stroke-width="7" d="M6.28452808,3.5 C13.5879307,15.8403363 17.978665,27.2962931 19.4226321,37.89016 C20.6643823,47.0004337 20.9480614,65.5838582 20.2994151,93.8398057 C19.9719604,108.104196 28.9864591,120.914009 42.5239479,125.421386 C44.143063,125.960478 45.305011,126.420444 46.1103197,126.86651 C47.7228919,127.759723 48.6312843,129.283993 49.5626173,131.754032 C50.2584791,133.599566 53.4392746,144.965464 54.5775942,148.247801 C58.5380428,159.667727 63.3686626,165.5 70.2869128,165.5 C74.9228401,165.5 76.1283612,163.739316 77.8097577,155.730646 C78.811745,150.958074 78.9623303,150.288317 79.585233,148.175528 C83.2112295,135.876714 91.355056,128.610477 108.221021,126.456402 C121.468994,124.764407 129.163717,121.017728 135.935248,114.52251 C136.792513,113.700226 137.623818,112.853739 138.711285,111.708634 C139.017791,111.385883 140.112288,110.226486 140.055192,110.286863 C140.598257,109.71259 141.006867,109.284687 141.410173,108.869879 C148.482556,101.595807 154.620306,98.9116154 165.920493,100.003434 C172.744078,100.662725 178.464135,103.545191 183.378036,108.374053 C187.19307,112.123064 190.283863,116.690361 193.814414,123.218147 C194.681569,124.821467 197.905657,131.037179 198.683916,132.468721 C203.034581,140.4714 205.966404,143.303991 209.569722,142.859393 C218.883808,141.710168 224.653781,135.115505 227.113368,122.187865 C227.233152,121.558278 227.368638,120.931782 227.519698,120.308963 C232.479309,99.8604849 234.958054,79.4259985 234.958054,59 C234.958054,39.3565437 240.188223,20.8364795 250.617391,3.49999182 L6.28452808,3.5 Z" stroke-linejoin="square" fill="#FFD81E" fill-rule="evenodd"></path>
                </g>
                <ellipse id="Oval-4" fill="#F67D7D" opacity="0.580446105" cx="92.5" cy="92.5" rx="4.5" ry="6.5"></ellipse>
                <ellipse id="Oval-4-Copy-2" fill="#F8E71C" opacity="0.82982337" cx="199.5" cy="53.5" rx="4.5" ry="6.5"></ellipse>
                <ellipse id="Oval-4-Copy-3" fill="#F67D7D" opacity="0.171535326" cx="164" cy="59.5" rx="11" ry="6.5"></ellipse>
                <ellipse id="Oval-4-Copy-4" fill="#F67D7D" opacity="0.337522645" cx="109" cy="35" rx="11" ry="14"></ellipse>
                <ellipse id="Oval-4-Copy" fill="#F67D7D" opacity="0.488394475" cx="190.5" cy="76.5" rx="4.5" ry="6.5"></ellipse>
                <ellipse id="Oval-4-Copy-6" fill="#F67D7D" opacity="0.488394475" cx="44.5" cy="81.5" rx="4.5" ry="6.5"></ellipse>
                <ellipse id="Oval-4-Copy-7" fill="#F67D7D" opacity="0.488394475" cx="64.5" cy="117" rx="3.5" ry="5"></ellipse>
                <ellipse id="Oval-4-Copy-8" fill="#F8E71C" opacity="0.702445652" cx="52.5" cy="53" rx="3.5" ry="5"></ellipse>
                <polygon id="Path-9" fill="#7ED321" opacity="0.240658967" points="123 62 134 71 123 71"></polygon>
                <ellipse id="Oval-4-Copy-5" fill="#F67D7D" opacity="0.171535326" cx="117" cy="90.5" rx="11" ry="6.5"></ellipse>
                <path d="M189,104 C196.448678,108.495398 207.166242,127.97282 213.500402,123.610848 C215.333319,122.348624 218.019579,115.739231 218,118.265152 C217.633956,165.217409 195.038852,114.802143 189.763626,105.996097 L189,104 Z" id="Path-12" fill="#F8E71C"></path>
                <path d="M50.467118,122 C55.0293596,123.612106 61.1458043,147.715308 69.1951246,141.81597 C73.1637919,138.907337 75.3431994,133.423943 79.0965841,130.146213 C79.6771526,129.639218 80.5264549,130.87517 80.8640577,131.625805 C82.2129941,134.625068 73.2667044,167.610327 65.3932527,159.809927 C57.6440782,152.132651 51.8031161,128.901759 50,124.058747 L50.467118,122 Z" id="Path-13" fill="#F8E71C"></path>
                <path d="M211,73.6241721 C213.722731,62.4263664 208.512245,42.4138547 215.816864,43.0131609 C227.052127,43.9349561 212.166614,79.9228006 211.546187,73.1524714" id="Path-15" fill="#FF9900" opacity="0.300554801"></path>
            </g>
        </g>
    </g>
</svg>