<?xml version="1.0" encoding="UTF-8"?>
<svg width="24px" height="31px" viewBox="0 0 24 31" version="1.1" xmlns="http://www.w3.org/2000/svg" xmlns:xlink="http://www.w3.org/1999/xlink">
    <!-- Generator: Sketch 55.1 (78136) - https://sketchapp.com -->
    <title>001-shopping-bag-1</title>
    <desc>Created with Sketch.</desc>
    <g id="Symbols" stroke="none" stroke-width="1" fill="none" fill-rule="evenodd">
        <g id="Group-15" transform="translate(-69.000000, -52.000000)" fill="#ED1C24">
            <g id="001-shopping-bag-1">
                <g transform="translate(69.000000, 53.000000)">
                    <path d="M22.5325536,30 L0.467438607,30 C0.339484289,30 0.21713381,29.9431472 0.129340337,29.8426396 C0.0415468639,29.742132 -0.00515179213,29.6071066 0.000452046596,29.4680203 L1.05117181,5.48324873 C1.06331346,5.21218274 1.26785357,5 1.51815837,5 L21.4818338,5 C21.7312046,5 21.9366787,5.21218274 21.9488204,5.48324873 L22.9995401,29.4680203 C23.005144,29.6071066 22.9593793,29.742132 22.8706518,29.8426396 C22.7819244,29.9431472 22.6595739,30 22.5325536,30 Z M0.956840522,28.9847716 L22.0422177,28.9847716 L21.0363286,6.01522843 L1.96272957,6.01522843 L0.956840522,28.9847716 Z" id="Shape" fill-rule="nonzero"></path>
                    <path d="M16.534293,11 C16.2772227,11 16.0685859,10.7833846 16.0685859,10.5164835 L16.0685859,5.71032967 C16.0685859,3.09547253 14.019475,0.967032967 11.5,0.967032967 C8.98052498,0.967032967 6.93141406,3.09547253 6.93141406,5.71032967 L6.93141406,10.5164835 C6.93141406,10.7833846 6.72277731,11 6.46570703,11 C6.20863675,11 6,10.7833846 6,10.5164835 L6,5.71032967 C6,2.56167033 8.46731583,0 11.5,0 C14.5326842,0 17,2.56167033 17,5.71032967 L17,10.5164835 C17,10.7833846 16.7922947,11 16.534293,11 Z" id="Shape" stroke="#ED1C24" stroke-width="2" fill-rule="nonzero"></path>
                    <polygon id="Path-11" points="2.04545455 5 1 29 24 29 22.9545455 5"></polygon>
                </g>
            </g>
        </g>
    </g>
</svg>