
<svg width="223px" height="61px" viewBox="0 0 223 61" version="1.1" xmlns="http://www.w3.org/2000/svg" xmlns:xlink="http://www.w3.org/1999/xlink">
    <defs>
        <path d="M16.3113911,0.278621622 C16.482067,0.403918919 16.705067,0.435243243 16.9131173,0.485939189 L16.9131173,0.485939189 C16.1033408,1.30078378 15.1050317,1.95364865 14.0502458,2.48987162 L14.0502458,2.48987162 C12.3106797,3.36406757 10.3551732,3.8854527 8.37890317,4.01116216 L8.37890317,4.01116216 C5.83620484,4.11543919 3.19425698,3.61260135 1.15445065,2.24133784 L1.15445065,2.24133784 C1.36623836,2.13912162 1.59546741,2.07358784 1.82718808,2.01835811 L1.82718808,2.01835811 C1.57096648,1.91202027 1.26864991,1.95076351 1.01782682,2.0620473 L1.01782682,2.0620473 C0.686441341,2.21289865 0.391599628,2.43175676 0.181057728,2.70666892 L0.181057728,2.70666892 C0.370836127,2.60610135 0.561860335,2.50718243 0.760359404,2.4214527 L0.760359404,2.4214527 C1.73458287,2.99312162 2.77483426,3.49101351 3.89772439,3.79271622 L3.89772439,3.79271622 C4.96662942,4.66402703 6.23029609,5.41004054 7.68083426,5.66145946 L7.68083426,5.66145946 C9.02091061,5.90133784 10.4677114,5.61612162 11.6088734,4.9224527 L11.6088734,4.9224527 C12.4443966,4.42662162 13.1009385,3.73995946 13.8073128,3.11347297 L13.8073128,3.11347297 C14.3081285,2.65514865 14.936432,2.33613514 15.5107505,1.96106757 L15.5107505,1.96106757 C16.1631397,1.57116216 16.7345512,1.08563514 17.2793855,0.582385135 L17.2793855,0.582385135 C17.4791304,0.617006757 17.6759683,0.663993243 17.8719758,0.713864865 L17.8719758,0.713864865 C17.5302086,0.454614865 17.0974972,0.239878378 16.6407002,0.239878378 L16.6407002,0.239878378 C16.5318994,0.239878378 16.4218529,0.252243243 16.3113911,0.278621622 L16.3113911,0.278621622 Z M9.23145251,4.22301351 C9.75967598,4.15789189 10.2849926,4.06886486 10.8007579,3.94315541 L10.8007579,3.94315541 C11.2421899,3.81703378 11.6437561,4.10513514 11.9689125,4.32893919 L11.9689125,4.32893919 C11.1769926,4.86557432 10.2555084,5.26372297 9.27962384,5.41993243 L9.27962384,5.41993243 C8.1845568,5.57531757 7.04754749,5.34450676 6.11402048,4.84084459 L6.11402048,4.84084459 C6.38436127,4.56510811 6.73277281,4.22136486 7.18292551,4.2885473 L7.18292551,4.2885473 C7.68374115,4.31781081 8.18621788,4.28236486 8.68744879,4.25516216 L8.68744879,4.25516216 C8.56785102,4.37922297 8.46195717,4.51647297 8.39468343,4.66938514 L8.39468343,4.66938514 C8.64633706,4.48762162 8.89466853,4.25598649 9.23145251,4.22301351 L9.23145251,4.22301351 Z" id="path-1"></path>
        <path d="M0.243763501,1.23030405 C0.0406964618,2.05792568 0.111707635,3.36447973 0.761605214,3.62372973 L0.761605214,3.62372973 C1.55643203,4.00580405 2.34959777,2.71367568 2.08216387,1.4759527 L2.08216387,1.4759527 C1.8462905,1.80856757 1.57470391,2.34561486 1.21674115,2.06575676 L1.21674115,2.06575676 C0.716756052,1.86750676 0.526147114,0.772804054 1.02613222,0.349101351 L1.02613222,0.349101351 C0.742502793,0.577439189 0.362530726,0.700263514 0.243763501,1.23030405 L0.243763501,1.23030405 Z" id="path-3"></path>
        <path d="M0.552724395,0.92447973 C0.314359404,1.30696622 0.154065177,1.80320946 0.135378026,2.35138514 L0.135378026,2.35138514 C0.193931099,2.93665541 0.490433892,3.41476351 0.850057728,3.66453378 L0.850057728,3.66453378 C1.20926629,3.91347973 1.62951955,3.93202703 1.94844693,3.61136486 L1.94844693,3.61136486 C2.33464804,3.18683784 2.22460149,2.34272973 2.22750838,1.71335811 L2.22750838,1.71335811 C1.9031825,2.31964865 1.29688827,2.20836486 1.08385475,1.49408784 L1.08385475,1.49408784 C0.862931099,0.951682432 1.23667412,0.530040541 1.44846182,0.187945946 L1.44846182,0.187945946 C1.10752514,0.274087838 0.791089385,0.541993243 0.552724395,0.92447973" id="path-5"></path>
    </defs>
    <g id="Page-1" stroke="none" stroke-width="1" fill="none" fill-rule="evenodd">
        <g id="1920-main" transform="translate(-367.000000, -33.000000)">
            <rect fill="none" x="0" y="0" width="1920" height="2365"></rect>
            <g id="header" transform="translate(0.000000, -17.000000)">
                <g id="logo" transform="translate(356.000000, 43.000000)">
                    <g id="Group-12" transform="translate(11.000000, 7.000000)">
                        <g id="Page-1">
                            <g id="Group-45" transform="translate(0.000000, 0.107162)">
                                <path d="M33.7559709,53.5271291 C24.1433006,41.4425345 14.5306302,29.3575277 4.91837505,17.2729331 C16.8706767,8.56394662 32.5043471,7.10695338 47.2858834,5.95166284 C45.0425948,14.4830074 44.8021534,23.3848858 43.7577493,32.1408588 C42.7133453,40.8964196 40.7308462,49.8432236 35.541632,56.9991831 C35.1168108,57.5848655 34.6645818,58.1635412 34.0852801,58.5991966 C34.7879169,56.0833588 35.3643117,55.593298 33.7559709,53.5271291" id="Fill-1" fill="#F89E1E"></path>
                                <path d="M25.5019395,25.4451608 C25.5019395,27.6325054 23.2628035,29.405627 20.5004274,29.405627 C17.7380512,29.405627 15.4989153,27.6325054 15.4989153,25.4451608 C15.4989153,23.2578162 17.7380512,21.4846946 20.5004274,21.4846946 C23.2628035,21.4846946 25.5019395,23.2578162 25.5019395,25.4451608" id="Fill-3" fill="#EE4423"></path>
                                <path d="M40.389868,33.799523 C40.389868,35.9868676 38.150732,37.7599892 35.3883559,37.7599892 C32.6259797,37.7599892 30.3864285,35.9868676 30.3864285,33.799523 C30.3864285,31.6121784 32.6259797,29.8386446 35.3883559,29.8386446 C38.150732,29.8386446 40.389868,31.6121784 40.389868,33.799523" id="Fill-5" fill="#EE4423"></path>
                                <path d="M43.8294665,15.4062919 C43.8294665,17.5936365 41.5903305,19.3667581 38.8279544,19.3667581 C36.0655782,19.3667581 33.8264423,17.5936365 33.8264423,15.4062919 C33.8264423,13.2189473 36.0655782,11.4458257 38.8279544,11.4458257 C41.5903305,11.4458257 43.8294665,13.2189473 43.8294665,15.4062919" id="Fill-7" fill="#EE4423"></path>
                                <path d="M30.1924143,43.5841291 C28.8498464,43.5841291 27.6318594,44.0037101 26.7332151,44.6854264 C28.4744423,46.8740074 30.2152542,49.0625885 31.9560661,51.2515818 C33.8480363,50.6865074 35.1939264,49.2406426 35.1939264,47.5445953 C35.1939264,45.3572507 32.9547905,43.5841291 30.1924143,43.5841291" id="Fill-9" fill="#EE4423"></path>
                                <path d="M7.62464823,18.4736439 C6.71686797,19.1739074 7.89125158,18.2840493 8.06192756,18.1604007 C8.41905978,17.9023872 8.77951415,17.6489074 9.14329069,17.4003736 C9.87125903,16.9028939 10.6129313,16.4256101 11.3666464,15.9681101 C12.7802255,15.1104007 14.237408,14.3235831 15.7303037,13.6105426 C16.0787153,13.4444412 16.4292032,13.2824615 16.7813521,13.1241912 C16.9948009,13.0281574 18.142192,12.5096574 17.1048475,12.9708669 C17.9088102,12.6135223 18.7476557,12.3159412 19.5773652,12.0224818 C21.1379499,11.4710088 22.7263577,10.996198 24.3351138,10.6021709 C25.9060803,10.2176236 27.5920765,9.77496149 29.2124601,9.66491419 C27.9475477,9.75064392 29.5409387,9.63358986 29.7813801,9.60844797 C30.2784583,9.55610338 30.776367,9.51076554 31.2746911,9.46954932 C32.1467581,9.39783311 33.0200709,9.34095473 33.8937991,9.28778581 C35.7645905,9.17402905 37.6378736,9.05244122 39.5128177,9.02729932 C40.509881,9.01369797 41.5077749,9.02936014 42.5031771,9.09530608 C42.993611,9.12786689 43.5035626,9.14641419 43.9881827,9.23255608 C42.8889629,9.03677905 44.4769555,9.33806959 44.6679797,9.37557635 C46.9037935,9.81452905 49.4938326,8.74496824 50.0440654,6.3457723 C50.5382367,4.19387365 49.3900151,1.48061014 46.9918307,1.00992095 C43.5791417,0.340157432 40.1618847,0.272975 36.7006091,0.451441216 C33.3614229,0.623312838 30.0359406,0.847116892 26.7245775,1.32275203 C20.9402814,2.15325878 15.3237544,4.054975 10.1320486,6.70558986 C7.03247318,8.28788041 4.19119572,10.2192723 1.44376927,12.3390223 C0.624026257,12.9716912 0.163907076,14.4315696 0.163907076,15.4063331 C0.163907076,16.4701236 0.639806518,17.7412318 1.44376927,18.4736439 C2.27680093,19.2324345 3.37020689,19.7958601 4.53420875,19.7443399 C5.77129814,19.6891101 6.65665382,19.2204818 7.62464823,18.4736439" id="Fill-11" fill="#FBB037"></path>
                                <path d="M66.2854834,14.4691588 C67.9008838,14.4691588 68.5636547,13.4573007 68.5636547,11.4504831 C68.5636547,9.23840878 67.9008838,8.41532095 66.2854834,8.41532095 L65.6222972,8.41532095 L65.6222972,14.4691588 L66.2854834,14.4691588 Z M60.2503642,14.4691588 L61.1515002,14.4691588 L61.1515002,8.39801014 L60.2503642,8.39801014 L60.2503642,5.61921284 L65.7755318,5.61921284 C67.8668317,5.61921284 69.1757628,5.75646284 70.4846939,6.42540203 C72.4397851,7.41994932 73.4086101,9.49559797 73.4086101,11.5020034 C73.4086101,13.5430304 72.422759,15.6009561 70.8077739,16.4240439 C69.1757628,17.2644426 67.8668317,17.2644426 65.7755318,17.2644426 L60.2503642,17.2644426 L60.2503642,14.4691588 Z" id="Fill-13" fill="#A045E4"></path>
                                <path d="M81.5344892,14.726348 C82.7587052,14.726348 83.0307071,13.5945507 83.0307071,11.4162736 C83.0307071,9.23840878 82.7587052,8.10619932 81.5344892,8.10619932 C80.3106885,8.10619932 80.0382713,9.23840878 80.0382713,11.4162736 C80.0382713,13.5945507 80.3106885,14.726348 81.5344892,14.726348 M81.5344892,5.37933446 C86.0401689,5.37933446 88.0459231,8.67251014 88.0459231,11.4162736 C88.0459231,14.1604493 86.0401689,17.4532128 81.5344892,17.4532128 C77.0292248,17.4532128 75.0230553,14.1604493 75.0230553,11.4162736 C75.0230553,8.67251014 77.0292248,5.37933446 81.5344892,5.37933446" id="Fill-15" fill="#A045E4"></path>
                                <polygon id="Fill-17" fill="#A045E4" points="89.4842523 14.4691588 90.5045708 14.4691588 90.5045708 8.41532095 89.4842523 8.41532095 89.4842523 5.61921284 94.958757 5.61921284 99.1579674 11.7080845 99.1920196 11.7080845 99.1920196 8.41532095 98.2227793 8.41532095 98.2227793 5.61921284 102.881278 5.61921284 102.881278 8.41532095 101.877986 8.41532095 101.877986 17.4532128 98.06996 17.4532128 93.2245894 10.3702061 93.1905372 10.3702061 93.1905372 14.4691588 94.2278818 14.4691588 94.2278818 17.2644426 89.4842523 17.2644426"></polygon>
                                <path d="M110.302901,11.7937318 L109.333661,8.56938716 L109.299609,8.56938716 L108.245653,11.7937318 L110.302901,11.7937318 Z M103.672285,14.4690764 L104.539369,14.4690764 L106.715383,8.41523851 L105.780195,8.41523851 L105.780195,5.61954257 L114.093901,5.61954257 L114.093901,8.41523851 L113.159128,8.41523851 L115.369195,14.4690764 L116.219253,14.4690764 L116.219253,17.2643601 L110.183719,17.2643601 L110.183719,14.7089547 L111.187011,14.7089547 L110.744748,13.2511372 L107.786365,13.2511372 L107.293855,14.7089547 L108.245653,14.7089547 L108.245653,17.2643601 L103.672285,17.2643601 L103.672285,14.4690764 Z" id="Fill-19" fill="#A045E4"></path>
                                <polygon id="Fill-21" fill="#A045E4" points="127.908274 10.5246432 125.732259 10.5246432 125.732259 8.4151973 124.405886 8.4151973 124.405886 14.4690351 125.426205 14.4690351 125.426205 17.2647311 118.915186 17.2647311 118.915186 14.4690351 119.934674 14.4690351 119.934674 8.4151973 118.608301 8.4151973 118.608301 10.5246432 116.432287 10.5246432 116.432287 5.61950135 127.908274 5.61950135"></polygon>
                                <polygon id="Fill-23" fill="#A045E4" points="129.287925 14.4691588 130.189061 14.4691588 130.189061 8.41532095 129.287925 8.41532095 129.287925 5.61921284 140.304623 5.61921284 140.304623 9.34103716 137.278551 9.34103716 137.278551 8.41532095 134.660689 8.41532095 134.660689 10.1987466 136.938029 10.1987466 136.938029 12.5653818 134.660689 12.5653818 134.660689 14.4691588 137.278551 14.4691588 137.278551 13.5430304 140.304623 13.5430304 140.304623 17.2644426 129.287925 17.2644426"></polygon>
                                <polygon id="Fill-25" fill="#A045E4" points="142.329978 14.4691588 143.367323 14.4691588 143.367323 8.41532095 142.329978 8.41532095 142.329978 5.61921284 148.926543 5.61921284 148.926543 8.41532095 147.83895 8.41532095 147.83895 14.4691588 150.558139 14.4691588 150.558139 12.5995912 153.329651 12.5995912 153.329651 17.2644426 142.329978 17.2644426"></polygon>
                                <polygon id="Fill-27" fill="#A045E4" points="154.451503 14.4691588 155.488847 14.4691588 155.488847 8.41532095 154.451503 8.41532095 154.451503 5.61921284 161.048067 5.61921284 161.048067 8.41532095 159.959644 8.41532095 159.959644 14.4691588 162.679663 14.4691588 162.679663 12.5995912 165.451175 12.5995912 165.451175 17.2644426 154.451503 17.2644426"></polygon>
                                <path d="M173.160538,14.726348 C174.384339,14.726348 174.656341,13.5945507 174.656341,11.4162736 C174.656341,9.23840878 174.384339,8.10619932 173.160538,8.10619932 C171.936737,8.10619932 171.663905,9.23840878 171.663905,11.4162736 C171.663905,13.5945507 171.936737,14.726348 173.160538,14.726348 M173.160538,5.37933446 C177.666218,5.37933446 179.671972,8.67251014 179.671972,11.4162736 C179.671972,14.1604493 177.666218,17.4532128 173.160538,17.4532128 C168.654858,17.4532128 166.649104,14.1604493 166.649104,11.4162736 C166.649104,8.67251014 168.654858,5.37933446 173.160538,5.37933446" id="Fill-29" fill="#A045E4"></path>
                                <path d="M80.2485641,35.1096628 C82.7543034,35.1096628 83.9602475,34.0969804 83.9602475,32.2546155 C83.9602475,30.3665007 82.9395138,29.3529939 79.8768974,29.3529939 L76.9073015,29.3529939 L76.9073015,35.1096628 L80.2485641,35.1096628 Z M61.6411451,46.2549399 L64.7033462,46.2549399 L64.7033462,29.9976155 L61.6411451,29.9976155 L61.6411451,22.4909061 L82.8934188,22.4909061 C92.8698657,22.4909061 96.7214952,27.0964061 96.7214952,32.3469399 C96.7214952,36.1231696 94.4474765,41.9721628 84.1927987,41.9721628 L76.9073015,41.9721628 L76.9073015,46.2549399 L80.0629384,46.2549399 L80.0629384,53.7624736 L61.6411451,53.7624736 L61.6411451,46.2549399 Z" id="Fill-31" fill="#EB2027"></path>
                                <polygon id="Fill-33" fill="#EB2027" points="97.463998 46.2549399 100.387084 46.2549399 100.387084 29.9976155 97.463998 29.9976155 97.463998 22.4909061 115.514125 22.4909061 115.514125 29.9976155 112.591039 29.9976155 112.591039 46.2549399 115.514125 46.2549399 115.514125 53.7624736 97.463998 53.7624736"></polygon>
                                <polygon id="Fill-35" fill="#EB2027" points="119.736715 46.5777453 135.281933 29.3526642 127.393048 29.3526642 127.393048 33.2220426 120.154476 33.2220426 120.154476 22.4909885 150.733715 22.4909885 150.733715 28.8465291 134.446409 46.8996439 143.587333 46.8996439 143.587333 42.6172791 150.825905 42.6172791 150.825905 53.7625561 119.736715 53.7625561"></polygon>
                                <polygon id="Fill-37" fill="#EB2027" points="154.895177 46.5777453 170.440395 29.3526642 162.55151 29.3526642 162.55151 33.2220426 155.312939 33.2220426 155.312939 22.4909885 185.892177 22.4909885 185.892177 28.8465291 169.604872 46.8996439 178.746626 46.8996439 178.746626 42.6172791 185.985198 42.6172791 185.985198 53.7625561 154.895177 53.7625561"></polygon>
                                <path d="M206.837982,39.0702939 L204.193127,30.4124155 L204.099691,30.4124155 L201.223116,39.0702939 L206.837982,39.0702939 Z M188.741345,46.2551047 L191.107138,46.2551047 L197.046745,29.9977804 L194.494911,29.9977804 L194.494911,22.4910709 L217.18568,22.4910709 L217.18568,29.9977804 L214.633015,29.9977804 L220.666058,46.2551047 L222.985756,46.2551047 L222.985756,53.7622264 L206.512825,53.7622264 L206.512825,46.8997264 L209.251116,46.8997264 L208.043926,42.9850101 L199.970661,42.9850101 L198.625186,46.8997264 L201.223116,46.8997264 L201.223116,53.7622264 L188.741345,53.7622264 L188.741345,46.2551047 Z" id="Fill-39" fill="#EB2027"></path>
                                <polygon id="Fill-41" fill="#FFFFFF" points="28.2209615 36.4264385 28.4053413 36.3291682 29.2246691 35.8980466 30.4546989 35.8980466 33.7569261 35.4158169 34.6310695 36.0909385 33.2714754 36.8942426 30.9758628 37.4082088 28.7080732 36.9915128"></polygon>
                                <path d="M38.7357229,32.0153142 C39.3112872,31.8764155 39.8731475,32.1294831 40.2967229,32.4501453 C40.1007155,32.4006858 39.9038775,32.3532872 39.7037173,32.3190777 C39.1588831,32.8219155 38.5874715,33.3074426 37.9350823,33.6977601 C37.3607639,34.0728277 36.7328756,34.3914291 36.23206,34.8501655 C35.5256857,35.476652 34.8687285,36.1633142 34.0336205,36.6591453 C32.8924585,37.352402 31.4452425,37.6376182 30.1055814,37.398152 C28.6550432,37.1463209 27.3913765,36.4003074 26.3220562,35.5294088 C25.1995814,35.2277061 24.1589147,34.7298142 23.1851065,34.1577331 C22.9866074,34.2434628 22.7955832,34.3423818 22.6053896,34.4433615 C22.8159315,34.1680372 23.1111885,33.9495912 23.4421587,33.7983277 C23.6929818,33.6870439 23.9952983,33.6483007 24.2515199,33.7546385 C24.0202145,33.8102804 23.7905702,33.875402 23.5791978,33.9780304 C25.6190041,35.3492939 28.260952,35.8517196 30.8036503,35.7478547 C32.7799203,35.6217331 34.7350115,35.100348 36.4745777,34.226152 C37.5297788,33.6903412 38.5276726,33.0370642 39.3374492,32.2226318 C39.1293989,32.1715236 38.9063989,32.1401993 38.7357229,32.0153142 M28.5383523,36.5775372 C29.4722946,37.0811993 30.6088886,37.311598 31.7043709,37.1562128 C32.6802555,37.0000034 33.6013244,36.6018547 34.3932443,36.0652196 C34.0685032,35.8414155 33.6669371,35.5533142 33.225505,35.6794358 C32.7093244,35.8055574 32.1844231,35.8941723 31.6557844,35.9592939 C31.3190004,35.9922669 31.0710842,36.223902 30.8190153,36.4056655 C30.8867043,36.2527534 30.9921829,36.1159155 31.1117806,35.9914426 C30.6105497,36.0186453 30.108073,36.0540912 29.6072574,36.0248277 C29.1575199,35.9580574 28.8086931,36.3013885 28.5383523,36.5775372" id="Fill-43" fill="#EE4423"></path>
                            </g>
                            <g id="Group-48" transform="translate(22.424581, 31.843649)">
                                <mask id="mask-2" fill="white">
                                    <use xlink:href="#path-1"></use>
                                </mask>
                                <g id="Clip-47"></g>
                                <polygon id="Fill-46" fill="#1F1A17" mask="url(#mask-2)" points="0.339524767 6.68547635 18.4664764 5.07268581 18.0022045 -0.0665641892 -0.124747114 1.54622635"></polygon>
                            </g>
                            <g id="Group-65" transform="translate(11.212291, 14.532838)">
                                <path d="M10.0763194,11.9115277 C6.88081657,12.6047845 1.62806611,14.9829601 0.523447858,11.3794264 C-0.802094041,6.77433851 4.27914991,4.9727777 8.12911825,3.51454797 C8.67976629,3.00964932 9.01447393,2.30773716 9.50615363,1.76038581 C10.5052933,0.648372297 12.1215242,0.42209527 13.456202,0.995412838 C15.4457607,1.85023716 15.7904348,3.46921014 17.3244423,3.76637905 C18.6267291,4.0186223 19.8667253,3.12340608 20.8887048,2.20716959 C21.9106844,1.29093311 22.9862337,0.256818243 24.3059618,0.158723649 C25.3665615,0.0795885135 26.3922784,0.641777703 27.2053771,1.38985203 C28.0188911,2.13792635 28.6692039,3.07023716 29.3975875,3.91599392 C30.5142486,5.21183176 31.8231797,6.30941959 33.2583529,7.15311554 C33.6810978,7.40123716 34.1308352,7.64235203 34.4173715,8.06275743 C34.7043231,8.48316284 34.7583082,9.14880473 34.3945317,9.49089932 C33.9065894,9.95004797 33.135433,9.52552095 32.5158501,9.71800068 C33.6250363,10.3061561 34.6474311,11.0884399 35.5323715,12.0261088 C35.7915,12.3006088 36.0531201,12.6237439 36.0726378,13.0169466 C36.0979693,13.5317372 35.6743939,13.9694534 35.2155205,14.0922777 C34.7570624,14.215102 34.2761797,14.0988723 33.8181369,13.9739872 C34.0822486,14.1001088 33.996703,14.5955277 33.7255317,14.7022777 C33.4543603,14.8090277 33.1512132,14.6256155 32.9726471,14.3791426 C32.7936657,14.1322574 32.6969078,13.8272574 32.5440885,13.5601764 C32.1524888,12.875575 31.4286732,12.4992709 30.7098408,12.311325 C29.9905931,12.1233791 29.2435223,12.0871088 28.5259358,11.8917439 C27.5471443,11.625075 26.6460084,11.0678318 25.6576657,10.8481493 C24.6240587,10.6189872 23.5551536,10.7706628 22.5007831,10.7273858 C20.1295912,10.6309399 17.7642132,9.54983851 15.4445149,10.0959534 C14.9549115,10.2113588 14.4823343,10.3976561 14.031351,10.636298 C13.3523845,11.2079669 12.5239209,11.1787034 11.7631462,11.3942642" id="Fill-49" fill="#A045E4"></path>
                                <path d="M28.8628028,13.0955047 C28.8628028,13.0955047 27.7083521,12.6804574 25.7989406,12.1298088 C24.8454806,11.8536601 23.7072255,11.5338223 22.4394061,11.2659169 C21.8052888,11.1319642 21.1371194,11.0165588 20.4469406,10.9316534 C19.7538549,10.8475723 19.034192,10.7902818 18.2950114,10.768025 C17.5554155,10.7449439 16.834922,10.7548358 16.1347767,10.7952277 C16.1007246,10.7964642 16.0226538,10.8026466 16.0247302,10.7997615 L15.8926743,10.8166601 L15.6306389,10.8492209 C15.4566408,10.8702412 15.2843037,10.8908493 15.114043,10.9114574 C14.943367,10.9308291 14.7743521,10.9502007 14.6074136,10.9695723 L14.3582516,10.9971872 L14.2349164,11.0107885 L14.2195514,11.0124372 L14.215814,11.0128493 C14.2075086,11.014498 14.272706,11.0017209 14.2432218,11.0074912 L14.2357469,11.0091399 L14.2054322,11.0149101 C14.2087544,11.0124372 14.1717953,11.0215047 14.1568456,11.0239777 C13.5119313,11.1554574 12.8973317,11.2807547 12.3188605,11.3986331 C11.7337451,11.5045588 11.1918177,11.5651466 10.6988922,11.6290318 C9.71345642,11.7489709 8.92444339,11.8932277 8.39165196,12.0498493 C8.1250486,12.125275 7.92156629,12.1965791 7.785773,12.2493358 C7.65039497,12.3029169 7.57855326,12.3313561 7.57855326,12.3313561 C7.57855326,12.3313561 7.85886052,12.2068831 8.38417709,12.0259439 C8.90824786,11.8425318 9.68729441,11.6273831 10.654043,11.3936872 C11.1361715,11.2733358 11.6656408,11.146802 12.2142125,10.9769912 C12.7694285,10.7977007 13.3603577,10.6072818 13.9795253,10.4077953 L14.0501212,10.3859507 L14.0796054,10.3772953 L14.0870803,10.3748223 L14.1261156,10.3669912 L14.1410654,10.3641061 L14.2627395,10.338552 L14.5085793,10.2878561 C14.6734415,10.2540588 14.8403801,10.2202615 15.0085644,10.186052 C15.1775793,10.1526669 15.34784,10.1188696 15.5197618,10.0850723 L15.7793056,10.0347885 L15.9101156,10.0100588 L16.0662572,9.99192365 C16.7884117,9.90825473 17.5483559,9.87239662 18.3228345,9.89671419 C19.0977283,9.91979527 19.8522739,10.0038764 20.5706911,10.1332953 C21.2920151,10.2643628 21.9713968,10.4424169 22.6055142,10.6439642 C23.8745793,11.0474709 24.9638326,11.5198088 25.8803335,11.9031196 C27.7071063,12.6849912 28.8628028,13.0955047 28.8628028,13.0955047" id="Fill-51" fill="#202020"></path>
                                <path d="M16.5199397,4.00048716 C16.5199397,4.00048716 16.4975151,3.95927095 16.4559881,3.88260878 C16.4165374,3.80429797 16.3521706,3.69218986 16.2641333,3.55205473 C16.0876436,3.27302095 15.8065058,2.88229122 15.3754555,2.490325 C14.9481426,2.10206824 14.3626119,1.70598041 13.6495933,1.48835878 C12.9328372,1.26002095 12.0902544,1.24559527 11.2646976,1.49701419 C10.5475263,1.71216284 9.92129907,2.11113581 9.45785773,2.56368986 L9.48401974,2.53112905 C8.74193222,3.56689257 8.05673669,4.40811554 7.65143315,5.05356149 C7.23408678,5.69323716 7.03101974,6.09756824 7.03101974,6.09756824 C7.03101974,6.09756824 7.15850764,5.66356149 7.49487635,4.96659527 C7.82127858,4.26138581 8.41677579,3.34597365 9.09657281,2.27641284 L9.10446294,2.26404797 L9.12273482,2.24385203 C9.60818547,1.71216284 10.2958726,1.23817635 11.113124,0.993352027 C12.035854,0.708960135 13.0183829,0.764189865 13.7907851,1.06754122 C14.5797981,1.36429797 15.1607609,1.849825 15.5652339,2.30691284 C15.971368,2.7681223 16.2022581,3.207075 16.3376361,3.51372365 C16.4049099,3.6678723 16.4505896,3.78946014 16.4767516,3.87354122 C16.5049899,3.95597365 16.5199397,4.00048716 16.5199397,4.00048716" id="Fill-53" fill="#3E3B3B"></path>
                                <path d="M31.0339175,5.9523223 C31.0339175,5.9523223 30.5169063,5.38848446 29.7141894,4.45205203 C29.3101317,3.98672095 28.8491819,3.41093041 28.3118225,2.81782905 C27.7740479,2.23049797 27.1395153,1.62049797 26.3401205,1.23388986 C25.9435376,1.04141014 25.5299287,0.918997973 25.1262862,0.89179527 C24.7151689,0.864592568 24.3347816,0.930538514 23.9726661,1.06160608 C23.2546642,1.32786284 22.6957108,1.80720743 22.2517872,2.21524797 C21.8116009,2.63482905 21.4814613,3.00989662 21.2518169,3.26626149 C21.0271559,3.52180203 20.8975916,3.66894392 20.8975916,3.66894392 C20.8975916,3.66894392 21.0022397,3.50284257 21.1837127,3.21515338 C21.3734911,2.92663986 21.6500609,2.50870743 22.0524575,2.02895068 C22.4614985,1.56238311 22.9942899,0.997308784 23.798668,0.637079054 C24.1927592,0.461085811 24.6744724,0.354335811 25.153694,0.372470946 C25.6399752,0.388957432 26.1291633,0.526619595 26.5797313,0.745065541 C27.4870963,1.18566689 28.1457145,1.8805723 28.6635562,2.52066014 C29.1805674,3.16899122 29.5817182,3.78063986 29.9322061,4.28759932 C30.6257071,5.30646419 31.0339175,5.9523223 31.0339175,5.9523223" id="Fill-55" fill="#3E3B3B"></path>
                                <path d="M10.1218745,11.4805709 C8.4761594,9.77751689 7.81338845,7.17471284 9.64763613,5.10978041 C9.96490242,4.7165777 10.3365691,4.35181419 10.7526696,4.02744257 C10.9856361,3.84238176 11.2368745,3.67051014 11.5192581,3.60909797 C12.252625,3.45000338 12.9320067,4.06453716 13.3979397,4.70338851 C13.9083065,5.40241554 14.3239918,6.19830068 14.515016,7.06755068 C14.7060402,7.93721284 14.6582842,8.88518581 14.2886939,9.68271959" id="Fill-57" fill="#FFFFFF"></path>
                                <path d="M14.2889015,9.68288446 C14.2889015,9.68288446 14.3835831,9.45866824 14.4570858,9.03702635 C14.528097,8.61909392 14.554259,7.9897223 14.3794304,7.26761419 C14.2037711,6.53561419 13.8159089,5.72571554 13.2116911,4.94095878 C12.9205868,4.55723581 12.5576408,4.17887095 12.1423708,4.00040473 C12.0397991,3.95506689 11.9363968,3.93198581 11.8359015,3.92291824 C11.7802553,3.91591149 11.7466184,3.92291824 11.7067525,3.92044527 L11.6000281,3.93775608 L11.5734508,3.94228986 C11.607503,3.93610743 11.5726203,3.94311419 11.5755272,3.94311419 L11.5389834,3.95300608 C11.3404844,4.01235743 11.1345104,4.15826284 10.9094341,4.34043851 C10.4642646,4.69448581 10.092598,5.0769723 9.74875438,5.50933041 C9.41695363,5.90830338 9.15907095,6.34231014 9.00542104,6.79156689 C8.69687542,7.69255338 8.75875065,8.60260743 8.96887728,9.3164723 C9.17568175,10.0365196 9.49045642,10.581398 9.7263298,10.9366818 C9.84052905,11.1184453 9.94725345,11.2507493 10.0166035,11.341425 C10.0851231,11.4321007 10.1216669,11.4807358 10.1216669,11.4807358 C10.1216669,11.4807358 10.0776482,11.4391074 9.99459423,11.3612088 C9.91070968,11.2820736 9.78571341,11.1699655 9.64202998,11.003452 C9.34926462,10.6778439 8.95019013,10.1692358 8.64289032,9.42734392 C8.33600577,8.69658041 8.15910074,7.68801959 8.45020503,6.62093176 C8.59471899,6.09130338 8.86879721,5.57115473 9.23257374,5.10252635 C9.56645084,4.65079662 9.99459423,4.18835068 10.4783838,3.80751284 C10.7121808,3.62121554 10.9866743,3.40853986 11.3475439,3.30426284 L11.4156482,3.28695203 L11.4700486,3.27541149 L11.4970412,3.27170203 L11.6037655,3.25645203 C11.7067525,3.24985743 11.8163838,3.2469723 11.9023447,3.25974932 C12.084233,3.27994527 12.2574006,3.32981689 12.4089741,3.40194527 C13.0165142,3.69746554 13.3856892,4.16815473 13.6859294,4.60751959 C14.2793503,5.48501284 14.6198717,6.41196554 14.7174601,7.20084392 C14.818786,8.00414797 14.6971119,8.64588446 14.5617339,9.06258041 C14.4217879,9.48051284 14.2889015,9.68288446 14.2889015,9.68288446" id="Fill-59" fill="#3E3B3B"></path>
                                <path d="M24.4993531,10.393823 C23.667152,10.0340054 23.3802004,8.92693784 23.2265505,7.96412703 C23.0944946,7.13897838 22.9807106,6.29734324 23.0762227,5.46601216 C23.1713196,4.63468108 23.5006287,3.80335 24.1102451,3.29515405 C24.3373978,3.10555946 24.6048317,2.96295135 24.8892916,2.93327568 C25.3573009,2.88464054 25.8082842,3.14347838 26.1753829,3.46414054 C26.8377385,4.04199189 27.319867,4.83045811 27.7172804,5.64818784 C28.0345467,6.30064054 28.3098708,7.00337703 28.3227441,7.74197162 C28.3464145,9.06542432 27.5436976,10.2153568 26.7708801,11.2354581" id="Fill-61" fill="#FFFFFF"></path>
                                <path d="M26.7708801,11.235252 C26.7708801,11.235252 26.9124872,11.0060899 27.1624797,10.6021709 C27.3983531,10.1912453 27.7662823,9.59031284 27.971841,8.79525203 C28.0735821,8.40246149 28.1138633,7.95361689 28.0474201,7.49776554 C27.9784853,7.03738041 27.801165,6.5592723 27.5603084,6.06962365 C27.3157143,5.57832635 27.0358223,5.06724527 26.6936399,4.59696824 C26.5233791,4.36162365 26.3327702,4.13575878 26.126381,3.93215068 C25.9104406,3.72153581 25.6932544,3.54265743 25.4532283,3.42436689 C25.2210924,3.30525203 24.9831426,3.27516419 24.7887963,3.33327905 C24.5736864,3.39304257 24.3548391,3.55007635 24.171705,3.73637365 C23.8041911,4.11391419 23.57953,4.62705608 23.4553642,5.13277905 C23.2149229,6.15741419 23.347394,7.17875203 23.428787,8.01915068 C23.513502,8.85460338 23.6991277,9.51488716 23.968638,9.89861014 C24.0986175,10.0919142 24.2369024,10.215975 24.3365672,10.289752 C24.4408,10.3610561 24.4993531,10.3936169 24.4993531,10.3936169 C24.4993531,10.3936169 24.436232,10.3717723 24.320787,10.3181912 C24.2061724,10.2596642 24.0429713,10.154975 23.874787,9.971975 C23.5292823,9.60968446 23.2352711,8.92961689 23.0529676,8.080975 C22.8810458,7.2455223 22.6285616,6.21264392 22.8258149,5.00336014 C22.9342004,4.41108311 23.159692,3.77552905 23.6372525,3.24383986 C23.8772786,2.98623851 24.1712898,2.74306284 24.5728559,2.61735338 C24.9947702,2.48381284 25.4428466,2.56913041 25.7920886,2.74718446 C26.1425765,2.91946824 26.4237143,3.16676554 26.6591724,3.40375878 C26.9021054,3.65188041 27.1097404,3.91401554 27.2920439,4.18356959 C27.656651,4.72391419 27.9215933,5.27415068 28.1475002,5.80954932 C28.371746,6.34906959 28.5337013,6.90466419 28.5656771,7.44624527 C28.5959918,7.9927723 28.4942507,8.48695473 28.3356175,8.90736014 C28.013368,9.74528581 27.5561557,10.2926372 27.2600682,10.6693534 C26.9523531,11.0411236 26.7708801,11.235252 26.7708801,11.235252" id="Fill-63" fill="#3E3B3B"></path>
                            </g>
                            <g id="Group-68" transform="translate(34.882682, 21.127432)">
                                <mask id="mask-4" fill="white">
                                    <use xlink:href="#path-3"></use>
                                </mask>
                                <g id="Clip-67"></g>
                                <polygon id="Fill-66" fill="#1F1A17" mask="url(#mask-4)" points="-3.93551397 8.14473649 6.21327002 8.14473649 6.21327002 -4.10431081 -3.93551397 -4.10431081"></polygon>
                            </g>
                            <g id="Group-71" transform="translate(22.839851, 21.127432)">
                                <mask id="mask-6" fill="white">
                                    <use xlink:href="#path-5"></use>
                                </mask>
                                <g id="Clip-70"></g>
                                <path d="M-3.53021043,7.35462162 C-2.04686592,7.98811486 -0.500400372,8.38873649 1.19971508,8.30547973 L3.66434264,8.30547973 L6.31833333,8.30547973 L6.31833333,-4.26464189 L-1.26491248,-4.26464189 C-2.78147858,-4.26464189 -3.92097952,-4.26587838 -3.92097952,-4.26587838 C-4.01358473,-3.69173649 -4.09082495,-3.11883108 -4.15186965,-2.54963514 C-4.4766108,-0.0201959459 -4.25568715,2.78250676 -3.74490503,5.36923649 C-3.60039106,6.53359459 -3.53021043,7.35462162 -3.53021043,7.35462162" id="Fill-69" fill="#1F1A17" mask="url(#mask-6)"></path>
                            </g>
                            <g id="Group-76" transform="translate(1.245810, 26.485541)" fill="#A045E4">
                                <path d="M12.8374082,0.0523445946 C9.7291121,0.529628378 6.86873222,1.93510135 4.37669683,3.68514189 C2.57567076,4.95006757 0.858113966,6.52411486 0.353145624,8.53793919 C-0.0517426443,10.1511419 0.375154935,11.8294662 0.800806704,13.4381351 C1.33650503,15.4630878 1.87178808,17.4876284 2.40748641,19.5121689 C2.67782719,20.5347432 2.95024432,21.5750405 2.88047896,22.6244054 C2.76005065,24.4428649 1.63508417,26.0733784 1.15752365,27.8432027 C4.79695009,26.6928581 7.70259441,23.7998919 8.62490912,20.4082095 C9.23909348,18.1495608 9.01069497,15.7540743 8.33255903,13.5106757 C7.88572849,12.0330743 7.2428905,10.5797905 7.17520149,9.04902027 C7.06640074,6.59706757 8.43928343,4.30420946 9.91972104,2.24958108 C10.6422909,1.24637838 11.6256503,0.154972973 12.9466242,0.18877027" id="Fill-72"></path>
                                <path d="M12.0976877,0.194087162 C9.73563184,2.05706014 8.49148287,5.02009392 8.88931155,7.83474932 C9.52301359,12.3211345 13.8110918,15.6373912 15.5610397,19.8727696 C17.4160508,24.362452 16.2188274,29.4650196 13.9182315,33.7815939 C14.5074996,33.908952 15.0805723,33.5483101 15.5332166,33.1835466 C19.4388311,30.0358642 21.2120341,24.8698236 19.9658088,20.2692696 C18.6780564,15.5153912 13.3895927,12.4653912 12.4008348,7.34674932 L12.0976877,0.194087162 Z" id="Fill-74"></path>
                            </g>
                        </g>
                    </g>
                </g>
            </g>
        </g>
    </g>
</svg>
