<?xml version="1.0" encoding="UTF-8"?>
<svg width="61px" height="56px" viewBox="0 0 61 56" version="1.1" xmlns="http://www.w3.org/2000/svg" xmlns:xlink="http://www.w3.org/1999/xlink">
    <!-- Generator: Sketch 55.1 (78136) - https://sketchapp.com -->
    <title>item_cat</title>
    <desc>Created with Sketch.</desc>
    <g id="Symbols" stroke="none" stroke-width="1" fill="none" fill-rule="evenodd">
        <g id="item-cart-1" transform="translate(-207.000000, -8.000000)">
            <g id="item_cat" transform="translate(207.000000, 7.000000)">
                <polygon id="Path-8" fill="#D0021B" transform="translate(33.500000, 43.500000) rotate(38.000000) translate(-33.500000, -43.500000) " points="28.8333333 16 20 46.2645503 28.8333333 46.2645503 20 71 45.3333333 38.4074074 36.5 38.4074074 47 16"></polygon>
                <polygon id="Path-8-Copy" fill="#9013FE" transform="translate(16.500000, 29.500000) rotate(5.000000) translate(-16.500000, -29.500000) " points="11.8333333 2 3 32.2645503 11.8333333 32.2645503 3 57 28.3333333 24.4074074 19.5 24.4074074 30 2"></polygon>
                <path d="M29.4402043,33.9139168 L28,33.9139168 L28,30.0860832 L29.4402043,30.0860832 L29.4402043,31.3830703 L30.3550122,31.3830703 L30.3550122,30.0860832 L31.7952165,30.0860832 L31.7952165,33.9139168 L30.3550122,33.9139168 L30.3550122,32.5824964 L29.4402043,32.5824964 L29.4402043,33.9139168 Z M37.313424,31.9971306 C37.313424,32.5595437 37.1218107,33.0224755 36.7385785,33.3859397 C36.3058969,33.7953153 35.7351779,34 35.0264043,34 C34.3176306,34 33.7469116,33.7953153 33.31423,33.3859397 C32.9309978,33.0224755 32.7393845,32.5595437 32.7393845,31.9971306 C32.7393845,31.4385434 32.9309978,30.9775245 33.31423,30.6140603 C33.7469116,30.2046847 34.3176306,30 35.0264043,30 C35.7351779,30 36.3058969,30.2046847 36.7385785,30.6140603 C37.1218107,30.9775245 37.313424,31.4385434 37.313424,31.9971306 Z M35.0264043,31.2338594 C34.7997615,31.2338594 34.6205104,31.2988994 34.4886456,31.4289813 C34.332056,31.5820189 34.2537625,31.7733131 34.2537625,32.0028694 C34.2537625,32.2362518 34.332056,32.4256329 34.4886456,32.5710187 C34.628752,32.7011006 34.8080031,32.7661406 35.0264043,32.7661406 C35.2448054,32.7661406 35.4240565,32.7011006 35.5641629,32.5710187 C35.7207525,32.4256329 35.799046,32.2362518 35.799046,32.0028694 C35.799046,31.7580093 35.7207525,31.5667152 35.5641629,31.4289813 C35.4240565,31.2988994 35.2448054,31.2338594 35.0264043,31.2338594 Z M38.257592,33.9139168 L38.257592,30.0860832 L40.0563021,30.0860832 C40.6332109,30.0860832 41.043222,30.1932079 41.2863478,30.4074605 C41.4965075,30.5911057 41.6015857,30.8417009 41.6015857,31.1592539 C41.6015857,31.3773325 41.5438957,31.5514102 41.4285139,31.6814921 C41.3378568,31.7886184 41.2183561,31.867049 41.0700081,31.9167862 L41.063827,31.9512195 C41.2204165,31.9894789 41.3646415,32.0659966 41.4965064,32.1807747 C41.6984245,32.356768 41.799382,32.5729303 41.799382,32.8292683 C41.799382,33.1927326 41.6510363,33.472022 41.3543403,33.6671449 C41.1029729,33.8316603 40.74035,33.9139168 40.2664607,33.9139168 L38.257592,33.9139168 Z M39.6421661,31.0043042 L39.6421661,31.5552367 L39.8770492,31.5552367 C40.0047933,31.5552367 40.0995697,31.5265426 40.1613814,31.4691535 C40.2149515,31.4194163 40.2417361,31.3524634 40.2417361,31.2682927 C40.2417361,31.184122 40.2108308,31.1171691 40.1490191,31.0674319 C40.0913282,31.0253465 40.0006725,31.0043042 39.8770492,31.0043042 L39.6421661,31.0043042 Z M39.6421661,32.3586801 L39.6421661,32.989957 L39.9450417,32.989957 C40.0810273,32.989957 40.1861055,32.9689146 40.2602795,32.9268293 C40.3550574,32.8694402 40.4024456,32.7833578 40.4024456,32.6685796 C40.4024456,32.5729311 40.3653592,32.4964135 40.2911852,32.4390244 C40.221132,32.3854612 40.111933,32.3586801 39.9635851,32.3586801 L39.6421661,32.3586801 Z M45.0861999,33.4375897 L43.9488712,33.4375897 L43.8376108,33.9139168 L42.2552404,33.9139168 L43.6830824,30.0860832 L45.3396264,30.0860832 L46.8107364,33.9139168 L45.2221849,33.9139168 L45.0861999,33.4375897 Z M44.6349771,31.7962697 C44.6020109,31.6661878 44.5752263,31.5227172 44.5546224,31.3658537 L44.4989922,31.3658537 C44.4948714,31.5035875 44.4722075,31.6470581 44.4309997,31.7962697 L44.2270223,32.5308465 L44.8265923,32.5308465 L44.6349771,31.7962697 Z M47.3593118,33.9139168 L48.150497,32.7718795 C48.2123087,32.6800569 48.2885419,32.5997134 48.379199,32.5308465 L48.379199,32.5021521 C48.1319524,32.4715446 47.9259167,32.3758975 47.7610856,32.215208 C47.5715298,32.0315629 47.4767534,31.7733159 47.4767534,31.4404591 C47.4767534,31.0425614 47.6024352,30.7269261 47.8538026,30.4935438 C48.1463778,30.221902 48.5955357,30.0860832 49.2012899,30.0860832 L51,30.0860832 L51,33.9139168 L49.5597957,33.9139168 L49.5597957,32.8063128 L49.5350712,32.8063128 L49.0034936,33.9139168 L47.3593118,33.9139168 Z M49.5597957,31.8077475 L49.5597957,31.1362984 L49.3496371,31.1362984 C49.1930476,31.1362984 49.0756072,31.1707314 48.9973125,31.2395983 C48.93138,31.3008133 48.8984143,31.3792439 48.8984143,31.4748924 C48.8984143,31.5820187 48.9416818,31.6661881 49.0282181,31.7274032 C49.1106337,31.7809663 49.2177723,31.8077475 49.3496371,31.8077475 L49.5597957,31.8077475 Z" id="НОВАЯ" fill="#FFFFFF" transform="translate(39.500000, 32.000000) rotate(-36.000000) translate(-39.500000, -32.000000) "></path>
                <path d="M15.0615034,10 C15.8435878,10 16.3864829,10.1634153 16.690205,10.4902507 C16.9939271,10.8170861 17.1457859,11.4187514 17.1457859,12.2952646 C17.1457859,13.1717778 16.9939271,13.7734431 16.690205,14.1002786 C16.3864829,14.427114 15.8435878,14.5905292 15.0615034,14.5905292 C14.2870121,14.5905292 13.7498117,14.427114 13.4498861,14.1002786 C13.1499605,13.7734431 13,13.1717778 13,12.2952646 C13,11.4187514 13.1499605,10.8170861 13.4498861,10.4902507 C13.7498117,10.1634153 14.2870121,10 15.0615034,10 Z M16.5421412,17.8440111 L15.1070615,17.8440111 L19.4350797,10.1559889 L20.8701595,10.1559889 L16.5421412,17.8440111 Z M15.0615034,11.2144847 C14.9172354,11.2144847 14.8280184,11.2701944 14.7938497,11.3816156 C14.7596809,11.4930368 14.7425968,11.7975834 14.7425968,12.2952646 C14.7425968,12.8003739 14.7596809,13.1067775 14.7938497,13.2144847 C14.8280184,13.3221918 14.9172354,13.3760446 15.0615034,13.3760446 C15.2133645,13.3760446 15.3082762,13.3203348 15.3462415,13.2089136 C15.3842067,13.0974925 15.4031891,12.7929458 15.4031891,12.2952646 C15.4031891,11.7975834 15.3842067,11.4930368 15.3462415,11.3816156 C15.3082762,11.2701944 15.2133645,11.2144847 15.0615034,11.2144847 Z M20.9157175,13.4094708 C21.6978019,13.4094708 22.240697,13.572886 22.5444191,13.8997214 C22.8481412,14.2265569 23,14.8282222 23,15.7047354 C23,16.5812486 22.8481412,17.1829139 22.5444191,17.5097493 C22.240697,17.8365847 21.6978019,18 20.9157175,18 C20.1412262,18 19.6040258,17.8365847 19.3041002,17.5097493 C19.0041747,17.1829139 18.8542141,16.5812486 18.8542141,15.7047354 C18.8542141,14.8282222 19.0041747,14.2265569 19.3041002,13.8997214 C19.6040258,13.572886 20.1412262,13.4094708 20.9157175,13.4094708 Z M20.9157175,14.6239554 C20.7714495,14.6239554 20.6822325,14.6778082 20.6480638,14.7855153 C20.613895,14.8932225 20.5968109,15.1996261 20.5968109,15.7047354 C20.5968109,16.2024166 20.613895,16.5069632 20.6480638,16.6183844 C20.6822325,16.7298056 20.7714495,16.7855153 20.9157175,16.7855153 C21.0675786,16.7855153 21.1624903,16.7298056 21.2004556,16.6183844 C21.2384208,16.5069632 21.2574032,16.2024166 21.2574032,15.7047354 C21.2574032,15.2070542 21.2384208,14.9025075 21.2004556,14.7910864 C21.1624903,14.6796652 21.0675786,14.6239554 20.9157175,14.6239554 Z" id="%" fill="#FFFFFF" transform="translate(18.000000, 14.000000) rotate(4.000000) translate(-18.000000, -14.000000) "></path>
            </g>
        </g>
    </g>
</svg>