<?xml version="1.0" encoding="UTF-8"?>
<svg width="58px" height="46px" viewBox="0 0 58 46" version="1.1" xmlns="http://www.w3.org/2000/svg" xmlns:xlink="http://www.w3.org/1999/xlink">
    <!-- Generator: Sketch 55.1 (78136) - https://sketchapp.com -->
    <title>menu_icon1</title>
    <desc>Created with Sketch.</desc>
    <defs>
        <rect id="path-1" x="0" y="0" width="58" height="46"></rect>
    </defs>
    <g id="menu_icon1" stroke="none" stroke-width="1" fill="none" fill-rule="evenodd">
        <mask id="mask-2" fill="white">
            <use xlink:href="#path-1"></use>
        </mask>
        <use id="Mask" fill="#D8D8D8" opacity="0" xlink:href="#path-1"></use>
        <g id="003-pizza-slice" mask="url(#mask-2)">
            <g transform="translate(5.000000, 7.000000)">
                <g transform="translate(21.450575, 19.967213) rotate(-62.000000) translate(-21.450575, -19.967213) translate(7.908046, 2.950820)">
                    <path d="M24.7628266,0.00132265924 C24.6727376,0.000529065052 24.5826487,0 24.4925598,0 C19.9491287,0 15.5413577,0.893590839 11.3914728,2.65643559 C7.38357018,4.35870242 3.78422862,6.79584056 0.692493206,9.90039429 L0.66746856,9.92578941 C-0.223410658,10.8222902 -0.222356986,12.2809225 0.669839304,13.1766297 L1.96822589,14.480775 C2.40233852,14.9167246 2.98106753,15.1566556 3.59799218,15.1566556 L3.59851898,15.1566556 C4.21597043,15.1563911 4.79469944,14.9161956 5.22907553,14.4797169 L5.2522563,14.456438 C5.43822928,14.2702071 5.68505186,14.1678331 5.94873311,14.1678331 L5.9608503,14.1678331 C6.23243412,14.1710074 6.48531527,14.2813175 6.67313218,14.4783942 L9.31784744,17.2565148 C9.58627025,17.5385065 9.94767955,17.6961679 10.3351672,17.7006649 L10.3514991,17.7006649 C10.7329282,17.7006649 11.0911764,17.5514686 11.3622335,17.2795291 C11.9233135,16.7158104 11.9338502,15.7886238 11.3851508,15.212472 L9.48142991,13.2128706 C9.31152541,13.0343111 9.30256924,12.7523195 9.46141022,12.5846058 C9.54570393,12.4957229 9.65897358,12.4467844 9.78040919,12.4467844 L9.78093606,12.4467844 C9.90210828,12.4467844 10.0151145,12.4951939 10.0988814,12.5830187 L10.698157,13.2126061 C11.2447491,13.7869062 12.1311501,13.8361092 12.7162012,13.3252969 C13.0188683,13.0607644 13.1956217,12.6941223 13.2140609,12.2925619 C13.2322368,11.8965568 13.0863033,11.5053131 12.8134024,11.2188244 L12.3787629,10.7622413 C12.1551212,10.5273364 12.0600273,10.2091038 12.1174524,9.88928396 C12.1746141,9.57184492 12.3727043,9.30942866 12.6608835,9.16975548 C16.3658556,7.37146334 20.3466262,6.45961977 24.4925598,6.45961977 C24.5731657,6.45961977 24.6535081,6.45988429 24.7338506,6.4606779 C25.3494581,6.46702668 25.9247627,6.23027005 26.3607192,5.79643671 C26.7982563,5.36101614 27.0390203,4.7803673 27.0390203,4.16189022 L27.0390203,2.30222659 C27.0390203,1.04437441 26.0180126,0.0121685301 24.7628266,0.00132265924 L24.7628266,0.00132265924 Z M26.0285493,4.1616257 C26.0285493,4.50736973 25.8939428,4.83195109 25.649491,5.0750565 C25.4063563,5.31710377 25.0834061,5.45122178 24.7430702,5.44540203 C24.6595668,5.44460849 24.5763267,5.4443439 24.4925598,5.4443439 C20.1930536,5.4443439 16.0642421,6.3900477 12.2212391,8.25553107 C11.6385588,8.53805181 11.238427,9.06764596 11.12305,9.70834371 C11.0071461,10.3514223 11.1986509,10.9910619 11.6480418,11.4632525 L12.0829447,11.9198356 C12.1667116,12.0079249 12.2099121,12.1237902 12.2043803,12.2454752 C12.1988486,12.3671601 12.1451113,12.4787928 12.052915,12.5592107 C11.8787959,12.7113169 11.5987827,12.6896252 11.4286147,12.5110658 L10.8293391,11.8814784 C10.556965,11.5955187 10.1750092,11.4315086 9.78067259,11.4315086 C9.78014579,11.4315086 9.77988239,11.4315086 9.77935552,11.4315086 C9.37896038,11.4317731 9.00622417,11.5928734 8.72937199,11.8846528 C8.19489718,12.4483716 8.20438015,13.3398462 8.75097222,13.9138818 L10.6546931,15.9134832 C10.8238073,16.091249 10.8203829,16.38779 10.6475808,16.5615879 C10.5667115,16.6427993 10.4589736,16.68486 10.3464942,16.6856536 C10.2332245,16.684331 10.1273306,16.6377732 10.0480417,16.5549746 L7.40332647,13.776854 C7.02637551,13.3808488 6.51797908,13.1591705 5.97244069,13.1528217 C5.96427472,13.1525572 5.95637221,13.1525572 5.94846971,13.1525572 C5.4150485,13.1525572 4.91508145,13.3599507 4.53944756,13.736645 L4.53154505,13.744581 L4.5262767,13.7496071 L4.51389604,13.7623047 C4.27076134,14.0067327 3.94544028,14.1413797 3.59825558,14.1413797 C3.59825558,14.1413797 3.59825558,14.1413797 3.59799218,14.1413797 C3.25107088,14.1413797 2.92601321,14.0069973 2.68287852,13.7628338 L1.38422853,12.4586884 C0.885841945,11.9581928 0.885051675,11.1434326 1.38396513,10.6413499 L1.4079361,10.6172775 C4.40615816,7.60610371 7.89776184,5.24197654 11.7852825,3.59076454 C15.8097805,1.88135533 20.0850523,1.01474677 24.4925598,1.01474677 C24.5797511,1.01474677 24.666679,1.01501129 24.7536069,1.0158049 L24.7538703,1.0158049 C25.4566692,1.02215368 26.0285493,1.5990991 26.0285493,2.30196208 L26.0285493,4.1616257 Z" id="Shape" fill="#FFFFFF" fill-rule="nonzero"></path>
                    <path d="M25.8137389,7.78829256 C25.5298223,7.78829256 25.3000106,8.00936084 25.3000106,8.28190029 L25.3000106,32.6207779 C25.3000106,32.8523979 25.1162683,32.9435017 25.0597529,32.9658917 C25.0035053,32.9882816 24.8066387,33.0487601 24.6362887,32.885082 L6.56955341,15.5259417 C6.36893685,15.3331825 6.04350418,15.3331825 5.84288769,15.5259417 C5.6422712,15.718701 5.6422712,16.0313878 5.84288769,16.224147 L23.909623,33.5832874 C24.1838971,33.8468194 24.5374536,33.9852766 24.9019917,33.9852766 C25.085734,33.9852766 25.2724225,33.9500189 25.4532184,33.8782167 C25.992392,33.6635823 26.3274671,33.1818129 26.3274671,32.6207779 L26.3274671,8.28190029 C26.3274671,8.00936084 26.0973876,7.78829256 25.8137389,7.78829256 L25.8137389,7.78829256 Z" id="Shape" fill="#FFFFFF" fill-rule="nonzero"></path>
                    <path d="M21.3467225,6.37223936 C20.1694896,6.37223936 19.2119355,7.32510475 19.2119355,8.49631918 C19.2119355,9.66753362 20.1694896,10.6203989 21.3467225,10.6203989 C22.5237002,10.6203989 23.4812545,9.66753362 23.4812545,8.49631918 C23.4812545,7.32510475 22.5237002,6.37223936 21.3467225,6.37223936 Z M21.3467225,9.64646037 C20.7093737,9.64646037 20.1909218,9.13054714 20.1909218,8.49631918 C20.1909218,7.86209117 20.7093737,7.34643181 21.3467225,7.34643181 C21.9838162,7.34643181 22.5022682,7.86209117 22.5022682,8.49631918 C22.5022682,9.13054714 21.9838162,9.64646037 21.3467225,9.64646037 Z" id="Shape" fill="#FFFFFF" fill-rule="nonzero"></path>
                    <path d="M12.807957,19.8248817 C12.807957,20.995956 13.7655715,21.9488245 14.9427542,21.9488245 C16.1196614,21.9488245 17.077276,20.995956 17.077276,19.8248817 C17.077276,18.6535333 16.1196614,17.7006649 14.9427542,17.7006649 C13.7655715,17.7006649 12.807957,18.6535333 12.807957,19.8248817 L12.807957,19.8248817 Z M14.9427542,18.7524935 C15.5369931,18.7524935 16.0204838,19.2335879 16.0204838,19.8248817 C16.0204838,20.4161755 15.5369931,20.89727 14.9427542,20.89727 C14.3485153,20.89727 13.8647491,20.4161755 13.8647491,19.8248817 C13.8647491,19.2335879 14.3485153,18.7524935 14.9427542,18.7524935 Z" id="Shape" fill="#FFFFFF" fill-rule="nonzero"></path>
                    <path d="M22.7698344,17.7006649 C21.5927978,17.7006649 20.6350418,18.6536741 20.6350418,19.8248771 C20.6350418,20.9960801 21.5927978,21.9488245 22.7698344,21.9488245 C23.946871,21.9488245 24.9043608,20.9960801 24.9043608,19.8248771 C24.9043608,18.6536741 23.9466049,17.7006649 22.7698344,17.7006649 Z M22.7698344,20.9327933 C22.1556358,20.9327933 21.6561337,20.4357668 21.6561337,19.8248771 C21.6561337,19.2137225 22.1556358,18.7166961 22.7698344,18.7166961 C23.3837669,18.7166961 23.8832689,19.2137225 23.8832689,19.8248771 C23.8832689,20.4357668 23.3837669,20.9327933 22.7698344,20.9327933 Z" id="Shape" fill="#FFFFFF" fill-rule="nonzero"></path>
                    <path d="M24.1928076,25.4566521 C24.1928076,24.3032026 23.1605653,23.3648777 21.8922665,23.3648777 L21.5127458,23.3648777 C20.2441778,23.3648777 19.2119355,24.3032026 19.2119355,25.4566521 C19.2119355,25.9571409 19.6598237,26.36414 20.209994,26.36414 L20.3453833,26.36414 L20.3238503,26.7314915 C20.3106612,26.9598319 20.4021769,27.1859697 20.5749799,27.3519019 C20.7480521,27.5178342 20.9916451,27.6130372 21.2430439,27.6130372 L22.1616992,27.6130372 C22.413098,27.6130372 22.6564219,27.5178342 22.8294941,27.3519019 C23.0025663,27.1859697 23.0940819,26.9598319 23.0808929,26.7314915 L23.0593598,26.36414 L23.194749,26.36414 C23.7449194,26.3643847 24.1928076,25.9571409 24.1928076,25.4566521 L24.1928076,25.4566521 Z M22.7137537,25.4253256 C22.5210326,25.4253256 22.3345022,25.4982575 22.2020737,25.6252764 C22.0693761,25.7525401 21.9993936,25.9258145 22.0096217,26.1003126 L22.0432672,26.6739781 L21.3614758,26.6739781 L21.3951213,26.1003126 C21.4053495,25.9253251 21.3350978,25.7522954 21.2024002,25.6252764 C21.0699717,25.4980127 20.8834413,25.4253256 20.6909894,25.4253256 L20.2452545,25.4253256 C20.2635576,24.8039368 20.8250328,24.3039368 21.5127458,24.3039368 L21.8922665,24.3039368 C22.5797103,24.3039368 23.1411855,24.8039368 23.1594886,25.4253256 L22.7137537,25.4253256 Z" id="Shape" fill="#FFFFFF" fill-rule="nonzero"></path>
                    <path d="M17.032651,10.6203989 C15.4877615,10.6203989 14.2310633,11.7908349 14.2310633,13.2299482 L14.2310633,13.6753306 C14.2310633,15.1141758 15.4877615,16.2846117 17.032651,16.2846117 C17.6720843,16.2846117 18.1923257,15.8003489 18.1923257,15.2048075 L18.1923257,14.9490009 L18.8055598,14.9793008 C19.0957664,14.9940486 19.3819424,14.8953726 19.5923998,14.7095509 C19.8028571,14.5234609 19.9234886,14.2620234 19.9234886,13.9920052 L19.9234886,12.9132735 C19.9234886,12.6432555 19.8028571,12.3815498 19.5923998,12.1957279 C19.3819424,12.0099061 19.0943269,11.9114983 18.8055598,11.925978 L18.1923257,11.9562779 L18.1923257,11.7004713 C18.1923257,11.1049299 17.6723722,10.6203989 17.032651,10.6203989 Z M18.8190913,12.9553717 L18.8190913,13.949639 L17.9199692,13.9051275 C17.7037537,13.8949381 17.4909931,13.9676044 17.3343737,14.1059652 C17.1777543,14.244326 17.0876405,14.4389965 17.0876405,14.6401023 L17.0876405,15.2045394 C17.0876405,15.2329623 17.0631688,15.2557543 17.0329388,15.2557543 C16.096965,15.2557543 15.3357486,14.5467892 15.3357486,13.6753306 L15.3357486,13.22968 C15.3357486,12.3582215 16.096965,11.6489882 17.0329388,11.6489882 C17.0631688,11.6489882 17.0876405,11.6720483 17.0876405,11.7002031 L17.0876405,12.2649084 C17.0876405,12.4660142 17.1777543,12.6606846 17.3343737,12.7990455 C17.4909931,12.9374063 17.7043295,13.0100725 17.9199692,12.999615 L18.8190913,12.9553717 Z" id="Shape" fill="#FFFFFF" fill-rule="nonzero"></path>
                </g>
            </g>
        </g>
    </g>
</svg>