<?xml version="1.0" encoding="UTF-8"?>
<svg width="58px" height="46px" viewBox="0 0 58 46" version="1.1" xmlns="http://www.w3.org/2000/svg" xmlns:xlink="http://www.w3.org/1999/xlink">
    <!-- Generator: Sketch 55.1 (78136) - https://sketchapp.com -->
    <title>menu_icon2</title>
    <desc>Created with Sketch.</desc>
    <defs>
        <rect id="path-1" x="0" y="0" width="58" height="46"></rect>
    </defs>
    <g id="menu_icon2" stroke="none" stroke-width="1" fill="none" fill-rule="evenodd">
        <mask id="mask-2" fill="white">
            <use xlink:href="#path-1"></use>
        </mask>
        <use id="Mask" fill="#D8D8D8" opacity="0" xlink:href="#path-1"></use>
        <g id="001-burger-copy" mask="url(#mask-2)" fill="#FFFFFF" fill-rule="nonzero">
            <g transform="translate(14.000000, 9.000000)" id="Shape">
                <path d="M29.4463577,20.5104504 L29.4463577,19.3649936 C29.4463577,19.2963042 29.441391,19.2278515 29.4342957,19.1601094 C29.5471115,19.0923674 29.651886,19.0175195 29.7469635,18.9350921 C30.16819,18.5703271 30.3905106,18.0887899 30.3900375,17.54259 C30.389801,17.0752644 30.2180939,16.62973 29.9212723,16.2855719 C30.1542358,16.0084453 30.2866821,15.6555233 30.2798233,15.287916 C30.2677612,14.634892 29.8380203,14.0782701 29.2509994,13.873149 C29.3728027,13.618761 29.440918,13.3340548 29.440918,13.0337159 L29.440918,12.6999795 C30.3108063,12.6393433 31,11.9117082 31,11.0256136 C31,10.8974721 30.9730377,7.85381634 28.6285019,4.96388286 C27.4369583,3.49511169 25.8596649,2.33189037 23.9399032,1.50643198 C21.617836,0.508065489 18.7782822,0.00118428671 15.4997635,0 C11.3705139,0.00142119257 7.96073152,0.801061818 5.36502075,2.37618328 C5.15003206,2.50669336 5.08144377,2.78666229 5.21152498,3.00173151 C5.34184262,3.21680073 5.62139893,3.28572712 5.83615112,3.15521704 C8.28806306,1.66749704 11.539383,0.912386164 15.4997635,0.910965032 C18.6541138,0.912149318 21.3728104,1.39392329 23.5811157,2.34349658 C25.3641739,3.1102136 26.8248673,4.18508595 27.9225159,5.53826931 C30.0657806,8.17997306 30.0903778,10.9107363 30.0903778,11.0256136 C30.0903778,11.4491199 29.7464905,11.7935149 29.3236084,11.7935149 L1.6763916,11.7935149 C1.25350952,11.7935149 0.909622223,11.4491199 0.909622223,11.0256136 C0.909622223,10.91121 0.924522385,9.86594518 1.4446106,8.42938702 C2.01342009,6.85758157 2.93888852,5.49066033 4.19476318,4.36675787 C4.38208008,4.19906072 4.39839934,3.91103851 4.23094939,3.72368194 C4.06349944,3.53608852 3.77613834,3.51998201 3.58882144,3.68744231 C0.0409164277,6.86279253 0,10.8572059 0,11.0256136 C0,11.9117082 0.689193695,12.6393433 1.55884554,12.6999795 L1.55884554,13.0337159 C1.55884554,13.3366602 1.62837981,13.6237351 1.7520752,13.8797811 C1.52951814,13.9593662 1.32446289,14.0886919 1.15653989,14.259942 C0.867523193,14.5548332 0.712608322,14.9406787 0.720176682,15.3459468 C0.7265625,15.6972108 0.852149979,16.0257361 1.06642912,16.2862825 C0.76984407,16.6304406 0.598373383,17.075975 0.598136887,17.54259 C0.597663895,18.0887899 0.819984451,18.5703271 1.24121094,18.9350921 C1.34220125,19.0224936 1.45430754,19.1013681 1.5749283,19.1721893 C1.56854248,19.2361416 1.56428531,19.3003308 1.56428531,19.3649936 L1.56428531,20.509503 C0.692031891,20.5677707 0,21.2963532 0,22.1843427 C0,25.9426063 3.05312346,29 6.80561067,29 L24.1943893,29 C27.9468765,29 31,25.9426063 31,22.1843427 C31,21.3001429 30.3136444,20.5736922 29.4463577,20.5104504 Z M29.1521378,18.2460652 C28.7339859,18.6082247 27.967453,18.758868 27.1512528,18.6392535 C26.5734558,18.5544575 26.2693024,18.3933924 25.9474106,18.2226161 C25.8733826,18.1835341 25.798645,18.1437416 25.7205963,18.1051334 L26.7536774,17.0520521 C26.882576,16.9205946 27.062088,16.845273 27.2463302,16.845273 L28.7259445,16.845273 C28.8673783,16.845273 29.0064469,16.8260873 29.1417313,16.7879528 C29.3541183,16.9769674 29.4804154,17.2521991 29.4806519,17.5433005 C29.4806519,17.820664 29.3702011,18.0572875 29.1521378,18.2460652 L29.1521378,18.2460652 Z M2.4684677,12.7047168 L28.5315323,12.7047168 L28.5315323,13.0337159 C28.5315323,13.3873484 28.3539124,13.7000041 28.08358,13.8875975 C28.0760116,13.8930453 28.0682068,13.8980193 28.0604019,13.9029934 C28.041008,13.9157839 28.021141,13.9278637 28.0010376,13.939233 C27.9939422,13.9432597 27.9870834,13.9472863 27.9802246,13.9510761 C27.9544449,13.964814 27.9281921,13.9776044 27.9012298,13.9892106 C27.8995743,13.9899212 27.8981552,13.9906318 27.8967362,13.9913424 C27.8666992,14.003896 27.8359528,14.0152653 27.8044967,14.0249765 C27.8009491,14.0261608 27.7974014,14.0271082 27.7938538,14.0280557 C27.767601,14.036109 27.7408752,14.0429779 27.7136764,14.0486625 C27.705162,14.0505574 27.6968841,14.0522155 27.6883698,14.0538735 C27.6649552,14.058137 27.641304,14.0619267 27.6174164,14.0647691 C27.608429,14.0657165 27.5996781,14.0669008 27.5906906,14.0678482 C27.5587616,14.0709275 27.526596,14.0728223 27.4939575,14.0728223 L3.50580598,14.0728223 C2.9339218,14.0728223 2.4684677,13.6066811 2.4684677,13.0339527 L2.4684677,12.7047168 Z M1.80576326,14.8980438 C1.92945865,14.7720342 2.09998323,14.6995549 2.2740555,14.6995549 L2.49495696,14.6995549 C2.78988647,14.8795687 3.13590242,14.9835505 3.50604248,14.9835505 L27.4939575,14.9835505 C27.534401,14.9835505 27.5743713,14.9818924 27.6141052,14.9795238 C27.6268768,14.9788133 27.6394119,14.9776289 27.651947,14.9766815 C27.6798553,14.9743129 27.7077637,14.9714706 27.7354355,14.9679176 C27.7489167,14.9662596 27.7626343,14.9648385 27.7761154,14.9629436 C27.8115921,14.9577327 27.8468323,14.9518111 27.8815994,14.9447054 C27.8962631,14.9416261 27.9106903,14.9380733 27.925354,14.9347572 C27.9492416,14.9293095 27.9731292,14.9236248 27.9967804,14.9172296 C28.0147552,14.9124924 28.0327301,14.9072814 28.0504684,14.9020705 C28.0696258,14.8963858 28.0885467,14.8899906 28.1074676,14.8838323 C28.125679,14.8779107 28.1436539,14.8719892 28.1616287,14.865594 C28.1926117,14.8539878 28.2233582,14.8419079 28.2536316,14.8291175 C28.2718429,14.8213011 28.2898178,14.8127741 28.3077926,14.804484 C28.3248215,14.7966676 28.3416138,14.7886144 28.3581696,14.7803242 C28.3759079,14.7713236 28.3936462,14.7625597 28.4111481,14.7530853 C28.431015,14.7424266 28.4506454,14.7310573 28.4702759,14.719688 C28.4821014,14.712819 28.4941635,14.7066606 28.5059891,14.6995549 L28.7540894,14.6995549 C29.0878067,14.6995549 29.3642883,14.9712337 29.3705413,15.30497 C29.3749313,15.5375669 29.2330246,15.7585576 29.009285,15.8675134 L29.0090485,15.8675134 C28.9179916,15.9118062 28.8226776,15.9345448 28.7259445,15.9345448 L27.2460937,15.9345448 C26.819664,15.9345448 26.4036408,16.109111 26.1046906,16.4139502 L24.2610855,18.2932005 C23.8216476,18.7413403 23.1248856,18.8019765 22.6161499,18.4573447 C22.6050339,18.4497652 22.5941544,18.4421856 22.5832748,18.4343692 C22.5548935,18.4139993 22.5267487,18.3926818 22.4995499,18.3694695 C22.4995499,18.3692326 22.4993133,18.3689958 22.4990768,18.3689958 L20.1112594,16.3199167 C19.8215332,16.0714501 19.4518661,15.9345448 19.0703735,15.9345448 L2.24591064,15.9345448 C2.1522522,15.9345448 2.06143188,15.9129906 1.97557829,15.8708294 L1.9753418,15.8708294 C1.76626587,15.768032 1.63381958,15.5603055 1.62945436,15.3288929 C1.62648772,15.1701964 1.68916324,15.0171846 1.80576326,14.8980438 L1.80576326,14.8980438 Z M1.50775873,17.5430636 C1.50775873,17.2538571 1.63287354,16.9800465 1.8433685,16.7910319 C1.9739227,16.8270347 2.10849763,16.845273 2.24591064,16.845273 L19.0703735,16.845273 C19.2352218,16.845273 19.3946304,16.9044881 19.5197449,17.011549 L21.4080505,18.6321477 C21.3702087,18.6335688 21.3307113,18.6342794 21.2897949,18.6342794 C20.691185,18.6342794 20.4189606,18.4710826 20.0746003,18.2645404 C19.6843567,18.0305223 19.2420807,17.7652387 18.3918228,17.7652387 C17.5418014,17.7652387 17.0995255,18.0305223 16.7092819,18.2645404 C16.3649216,18.4710826 16.0929337,18.6342794 15.4940872,18.6342794 C14.8952408,18.6342794 14.6232529,18.4710826 14.2788925,18.2645404 C13.888649,18.0305223 13.446373,17.7652387 12.5963516,17.7652387 C11.7460938,17.7652387 11.3038177,18.0305223 10.9135742,18.2645404 C10.5692139,18.4710826 10.2972259,18.6342794 9.69837955,18.6342794 C9.09953305,18.6342794 8.82754517,18.4710826 8.48318481,18.2645404 C8.09294125,18.0305223 7.65066528,17.7652387 6.80040739,17.7652387 C5.90213777,17.7652387 5.46388248,17.9978356 5.04005435,18.2226161 C4.71839908,18.3931556 4.4144821,18.5544575 3.83668521,18.6390166 C3.02048494,18.7586311 2.253952,18.6079879 1.8360367,18.2460652 C1.61797331,18.0572875 1.50752261,17.820664 1.50775873,17.5430636 Z M24.1943893,28.0892719 L6.80561067,28.0892719 C3.55452727,28.0892719 0.909622223,25.4402254 0.909622223,22.1843427 C0.909622223,21.7608364 1.25350952,21.4164413 1.6763916,21.4164413 L22.0643692,21.4164413 C22.3155441,21.4164413 22.5191803,21.2125046 22.5191803,20.9609589 C22.5191803,20.7094131 22.3155441,20.5054764 22.0643692,20.5054764 L2.47390747,20.5054764 L2.47390747,19.5080573 C2.73241423,19.5620615 3.0077133,19.5904847 3.29365543,19.5904847 C3.51361084,19.5904847 3.73971558,19.5739045 3.96865845,19.5405072 C4.70160677,19.4329726 5.10769653,19.2176665 5.46601106,19.0277045 C5.83615112,18.8313472 6.128479,18.6762037 6.80064389,18.6762037 C7.39925383,18.6762037 7.67147827,18.8394005 8.01583862,19.0459427 C8.40608218,19.2799608 8.84835815,19.5452444 9.69861604,19.5452444 C10.5486374,19.5452444 10.9909134,19.2799608 11.3811569,19.0459427 C11.7255173,18.8394005 11.9975052,18.6762037 12.5963516,18.6762037 C13.1951981,18.6762037 13.467186,18.8394005 13.8115463,19.0459427 C14.2017899,19.2799608 14.6440658,19.5452444 15.4943237,19.5452444 C16.3443451,19.5452444 16.7866211,19.2799608 17.1768646,19.0459427 C17.5212249,18.8394005 17.7932129,18.6762037 18.3920593,18.6762037 C18.9909058,18.6762037 19.2628937,18.8394005 19.6072541,19.0459427 C19.9974976,19.2799608 20.4397736,19.5452444 21.2897949,19.5452444 C21.6947021,19.5452444 22.0343323,19.4865031 22.3607178,19.3600196 C22.6684189,19.5125577 23.0035553,19.5888267 23.3386917,19.5888267 C23.9112854,19.5888267 24.48246,19.3675991 24.9103088,18.9315392 L25.0375519,18.8019765 C25.2085495,18.862376 25.3577881,18.9407768 25.5223999,19.0279414 C25.8807144,19.2179034 26.2868042,19.4329726 27.0197525,19.5405072 C27.2486954,19.5741414 27.4748001,19.5904847 27.6947555,19.5904847 C27.9889755,19.5904847 28.2718429,19.5604035 28.536972,19.5033201 L28.536972,20.5054764 L24.1806717,20.5054764 C23.9294968,20.5054764 23.7258606,20.7094131 23.7258606,20.9609589 C23.7258606,21.2125046 23.9294968,21.4164413 24.1806717,21.4164413 L29.3236084,21.4164413 C29.7464905,21.4164413 30.0906143,21.7608364 30.0906143,22.1843427 C30.0906143,25.4402254 27.4454727,28.0892719 24.1943893,28.0892719 L24.1943893,28.0892719 Z"></path>
            </g>
        </g>
    </g>
</svg>