<?xml version="1.0" encoding="UTF-8"?>
<svg width="58px" height="46px" viewBox="0 0 58 46" version="1.1" xmlns="http://www.w3.org/2000/svg" xmlns:xlink="http://www.w3.org/1999/xlink">
    <!-- Generator: Sketch 55.1 (78136) - https://sketchapp.com -->
    <title>menu_icon3 </title>
    <desc>Created with Sketch.</desc>
    <defs>
        <rect id="path-1" x="0" y="0" width="58" height="46"></rect>
    </defs>
    <g id="menu_icon3-" stroke="none" stroke-width="1" fill="none" fill-rule="evenodd">
        <mask id="mask-2" fill="white">
            <use xlink:href="#path-1"></use>
        </mask>
        <use id="Mask" fill="#D8D8D8" opacity="0" xlink:href="#path-1"></use>
        <g id="001-food" mask="url(#mask-2)" fill="#FFFFFF" fill-rule="nonzero">
            <g transform="translate(14.000000, 8.000000)" id="Shape">
                <path d="M30.9619141,23.3787647 L30.5061035,23.3787647 C30.3215332,23.1769368 30.0527344,23.0124845 29.7553711,22.8306705 C29.4123535,22.6211263 29.0234375,22.3836108 28.8762207,22.1330741 C28.8181152,22.034692 28.8415527,21.7101275 28.8583984,21.4730943 C28.8947754,20.9684039 28.935791,20.3964374 28.5827637,19.9595053 C28.2817382,19.5852676 27.7844238,19.5044882 27.3037109,19.4263612 C26.9936524,19.3759645 26.642334,19.3190573 26.5009766,19.1886045 C26.3293457,19.0306627 26.2275391,18.6822262 26.1291504,18.3451229 C25.9882812,17.8630989 25.8427734,17.3649191 25.4240722,17.0878578 C24.9272461,16.7599175 24.3225097,16.8310516 23.7890625,16.8937461 C23.5175781,16.9255756 23.1796875,16.9653625 23.0463867,16.9048382 C22.7385254,16.7652225 22.4833984,16.4013534 22.2585449,16.0801649 L22.2202149,16.0254278 C22.0185547,15.7392035 21.7016601,15.5530492 21.3508301,15.514468 C21.0029297,15.4761279 20.6550293,15.58729 20.3955078,15.8192595 C19.9584961,16.1901214 19.5683594,16.5790682 19.2241211,16.9841708 C19.0456543,16.1732421 18.3881836,15.5366521 17.5595703,15.3789514 L17.6833496,11.22472 C17.6911621,10.9688783 17.4873047,10.7552349 17.2280274,10.7477598 C16.9685059,10.739079 16.7529297,10.9413893 16.7451172,11.197472 L16.6105957,15.7114732 C16.6062012,15.856635 16.6625976,15.9998678 16.7651367,16.1042781 C16.8676757,16.2086886 17.0109863,16.2684894 17.1582031,16.2684894 C17.8063965,16.2684894 18.3337402,16.7883712 18.3337402,17.4276135 L18.3337402,18.2448118 C18.1464844,18.5722697 17.9858399,18.9084085 17.8525391,19.2522635 C17.7380371,19.2611855 17.6245117,19.2739655 17.5126953,19.2918093 L17.5126953,18.7924238 C17.5126953,18.536341 17.3027344,18.3287259 17.043457,18.3287259 C16.7841797,18.3287259 16.5739746,18.536341 16.5739746,18.7924238 L16.5739746,19.5534381 C16.2824707,19.6718341 16.0075684,19.8215774 15.7526856,19.9978453 L15.7526856,18.7924238 C15.7526856,18.536341 15.5424805,18.3287259 15.2832031,18.3287259 C15.0241699,18.3287259 14.8139649,18.536341 14.8139649,18.7924238 L14.8139649,20.5669182 C14.6662597,20.4675715 14.5112305,20.3920971 14.3510742,20.3433883 C14.2321777,20.3077007 14.1130371,20.2867222 13.9926757,20.2806938 L13.9926757,17.4273724 C13.9926757,16.7883712 14.5200195,16.2684894 15.1682129,16.2684894 L15.1945801,16.2684894 C15.342041,16.2684894 15.4853516,16.2084474 15.5878906,16.104037 C15.6904297,15.9993855 15.746582,15.8561528 15.7421875,15.7107498 L15.6547851,12.9435128 C15.6547851,12.9411014 15.6547851,12.9386901 15.6547851,12.9362788 L15.3037109,1.80222461 C15.2963867,1.57097855 15.3823242,1.3520302 15.5454101,1.18588989 C15.7092285,1.0190261 15.9289551,0.927154621 16.1643066,0.927154621 C16.3994141,0.927154621 16.6191406,1.01878499 16.7827149,1.18516647 C16.9460449,1.35130678 17.0319824,1.57001402 17.0251465,1.7995722 L16.7805176,9.28408528 C16.7722168,9.5399269 16.9755859,9.7540526 17.2346191,9.76225107 C17.4960937,9.77069073 17.7104492,9.56982733 17.71875,9.31398566 L17.9633789,1.82826699 C17.9777832,1.34455507 17.7978516,0.886644353 17.4562988,0.539413488 C17.1142578,0.19145921 16.6555176,0 16.1645508,0 C15.6728516,0 15.2136231,0.191941506 14.871582,0.540378018 C14.5297851,0.888573413 14.3500976,1.34696637 14.3654785,1.83116052 L14.6945801,12.2753345 C14.5307617,12.2403702 14.4147949,12.2304838 14.3891601,12.2285547 C13.5446777,12.1735765 12.6713867,12.6071329 12.2155762,13.309552 C11.918457,13.7677038 11.8920899,14.1990899 11.8728027,14.514009 C11.8669434,14.6111854 11.8581543,14.7553827 11.8383789,14.8040914 C11.7773438,14.805056 11.6088867,14.7370566 11.5068359,14.6955818 C11.2053223,14.5726042 10.7924805,14.4040526 10.3293457,14.5525902 C9.47460938,14.8265168 9.02099612,15.971173 8.92333987,17.0733898 C8.58105469,17.23736 8.40917969,17.2998133 8.24682619,17.220963 C8.07885744,17.1394602 8.00903319,16.9424549 7.9001465,16.6012523 C7.76538087,16.1795115 7.58105469,15.6019991 6.96972656,15.2400591 C6.02978513,14.6837664 4.95458987,15.1411948 4.90942381,15.1609676 C4.13500975,15.4983121 3.56518556,16.2827163 3.49145506,17.113659 C3.44384763,17.6552427 3.623291,18.0494944 3.75415038,18.3371656 C3.79443362,18.4259023 3.85424806,18.5570784 3.86010744,18.6098864 C3.8046875,18.6390634 3.62548825,18.6549782 3.51635744,18.6648646 C3.19116212,18.6940417 2.74584962,18.7338286 2.40527344,19.0772013 C2.00390625,19.4815806 1.87890625,20.1755601 2.0529785,21.0310983 C2.10400388,21.2821173 2.35180663,21.4448818 2.60546875,21.3942439 C2.85961913,21.3438472 3.02441406,21.0993388 2.9731445,20.8483199 C2.85449219,20.2642969 2.93896487,19.8640168 3.07568362,19.726089 C3.16796875,19.6330118 3.33569337,19.6120333 3.60083006,19.5881611 C3.95532225,19.5565728 4.440918,19.513169 4.69262694,19.0429605 C4.91479494,18.6262834 4.74609375,18.2551804 4.61035156,17.9571407 C4.50219725,17.7196251 4.4001465,17.4951306 4.42651369,17.1941972 C4.47070312,16.6981876 4.82495119,16.2108587 5.28662112,16.0097542 C5.293457,16.0068606 5.96777344,15.7278702 6.48730469,16.0350731 C6.77832031,16.2074829 6.87353513,16.4683883 7.00488281,16.8800016 C7.13476562,17.2867921 7.29638675,17.7926882 7.83300781,18.0531114 C8.43090819,18.3431939 8.9731445,18.081565 9.3688965,17.8903469 C9.43505862,17.8585174 9.50097656,17.8264468 9.56665038,17.7975109 C9.82226562,17.6844197 9.93017575,17.6827318 10.0136719,17.7152847 C10.3618164,17.8510423 10.4719238,18.7304527 10.5603027,19.4369711 C10.6884766,20.4615432 10.8210449,21.5213208 11.6574707,21.8456441 C11.8010254,21.9015868 11.9401856,21.9249766 12.0744629,21.9249766 C12.4841309,21.9249766 12.8488769,21.7067517 13.1564941,21.5227676 C13.3020019,21.4357187 13.4411621,21.3530103 13.5759277,21.2932094 C13.6479492,21.285252 13.7150879,21.2611388 13.7734375,21.2247277 C13.8830566,21.1989265 13.9797363,21.2008556 14.0766601,21.2300327 C14.1965332,21.2664437 14.3198242,21.3448118 14.4377441,21.4564562 C14.1247559,22.0308339 13.9438476,22.6847853 13.9338379,23.3787647 L9.67944337,23.3787647 C9.19750975,23.04986 8.75805663,22.6652536 8.37255862,22.2326618 C7.35668944,21.0908992 6.92944337,19.8714919 6.75,19.0494711 C6.69555663,18.7991755 6.44604494,18.6405103 6.19238281,18.6940417 C5.93896487,18.7480554 5.777832,18.9944928 5.8325195,19.2447884 C6.03540038,20.1743544 6.51831056,21.5536325 7.66772462,22.8448973 C7.83349612,23.0310516 8.00830075,23.2087663 8.190918,23.3787647 L4.62207031,23.3787647 C4.26196288,23.1340153 3.92846681,22.7990822 3.65234375,22.4007311 C3.50561525,22.1897402 3.21362306,22.1354854 2.99975587,22.2804061 C2.78588869,22.4250856 2.73144531,22.7137212 2.87792969,22.9247122 C2.98974612,23.0860299 3.10864256,23.2364966 3.23291013,23.3787647 L1.03808594,23.3787647 C0.465576187,23.3787647 0,23.8383634 0,24.403337 L0,25.615028 C0,26.1800016 0.465576188,26.6396002 1.03808594,26.6396002 L1.2890625,26.6396002 C2.121582,26.6396002 2.861084,27.1913114 3.08789062,27.9812617 L3.37548825,28.9838908 C3.71606444,30.1709863 4.82714844,31 6.07763675,31 L25.9318847,31 C27.2060547,31 28.3225097,30.1509723 28.6474609,28.9354232 L28.8935547,28.0135734 C29.1098632,27.2045737 29.8530274,26.6398414 30.701416,26.6398414 L30.9619141,26.6398414 C31.5344238,26.6398414 32,26.1800016 32,25.615028 L32,24.403337 C32,23.8383634 31.5344238,23.3787647 30.9619141,23.3787647 L30.9619141,23.3787647 Z M12.0004882,20.9828718 C11.6838379,20.8601353 11.5727539,19.971803 11.4916992,19.3231565 C11.3603516,18.2749533 11.2248535,17.1910625 10.3581543,16.8529947 C10.2033691,16.7927116 10.0524902,16.769804 9.90844725,16.7707685 C10.048584,15.9996266 10.3774414,15.5118155 10.6188965,15.4344119 C10.7446289,15.3943839 10.902832,15.4522557 11.1486816,15.5525669 C11.4777832,15.6866366 11.9284668,15.8703796 12.371582,15.5692051 C12.7648926,15.3022713 12.7897949,14.8962041 12.8095703,14.5699518 C12.8256836,14.3100109 12.8405762,14.064538 13.0058594,13.8096609 C13.2783203,13.3898491 13.8215332,13.1195395 14.3234863,13.1535392 C14.3259277,13.1537804 14.5053711,13.1682483 14.7250976,13.2449284 L14.7922363,15.37437 C13.8051757,15.5499145 13.0537109,16.4037648 13.0537109,17.4276135 L13.0537109,20.5131456 C12.9169922,20.5823506 12.7888184,20.6587896 12.6699219,20.7296826 C12.3464356,20.9233121 12.1398926,21.0368855 12.0004882,20.9828718 L12.0004882,20.9828718 Z M21.0119629,16.5185439 C21.0158691,16.515168 21.0197754,16.5117922 21.0236816,16.5084163 C21.1064453,16.433183 21.1992187,16.4310127 21.2473144,16.4360765 C21.295166,16.4413815 21.3852539,16.4638068 21.4492187,16.5547138 L21.4865722,16.6077629 C21.765625,17.0061139 22.1130371,17.5018824 22.6547851,17.7475964 C23.0280762,17.9168715 23.4714356,17.8647869 23.8999024,17.8143902 C24.2902832,17.768575 24.6938476,17.7210719 24.9020996,17.8585174 C25.0358887,17.9470131 25.1418457,18.3101587 25.2270507,18.6019291 C25.3547363,19.0388612 25.4992676,19.5341474 25.8608399,19.8669104 C26.2099609,20.1883401 26.7099609,20.2696017 27.1513672,20.3412181 C27.3984375,20.3814872 27.7719726,20.4420115 27.8483887,20.5370177 C27.9733887,20.6918248 27.9462891,21.0720909 27.9221191,21.4077474 C27.892334,21.823701 27.8613281,22.2538814 28.0644531,22.5989421 C28.2539062,22.9210952 28.5605469,23.1670504 28.8793945,23.3787647 L26.2595215,23.3787647 C26.2263184,21.0899347 24.329834,19.2380367 22.0021972,19.2380367 C21.3374024,19.2380367 20.6835937,19.3911559 20.0947266,19.6822029 C19.7099609,19.4919493 19.2924805,19.3566739 18.8525391,19.2886745 C19.3005371,18.2855632 20.0241699,17.3557561 21.0119629,16.5185439 L21.0119629,16.5185439 Z M22.4492187,23.3787647 C22.4418945,22.8796204 22.3464356,22.4014546 22.1767578,21.9587352 C22.9001465,22.0508479 23.4648437,22.6478921 23.4948731,23.3787647 L22.4492187,23.3787647 Z M24.4335937,23.3787647 C24.4006347,22.0718264 23.3137207,21.0185595 21.9814453,21.0185595 C21.8811035,21.0185595 21.7814941,21.0253111 21.6828613,21.0371266 C21.4934082,20.7701929 21.2736816,20.5254434 21.0280762,20.3086652 C21.3417969,20.2139001 21.670166,20.1649502 22.0021972,20.1649502 C23.8122559,20.1649502 25.2875976,21.6011357 25.3208007,23.3787647 L24.4335937,23.3787647 Z M18.1914062,20.1649502 C20.0014649,20.1649502 21.4770507,21.6011357 21.5104981,23.3787647 L20.6640625,23.3787647 C20.6308594,22.0720675 19.5439453,21.0188006 18.2116699,21.0188006 C16.8796387,21.0188006 15.7927246,22.0720675 15.7595215,23.3787647 L14.8723144,23.3787647 C14.9055176,21.6011357 16.3811035,20.1649502 18.1914062,20.1649502 L18.1914062,20.1649502 Z M19.7253418,23.3787647 L16.6982422,23.3787647 C16.730957,22.5832685 17.3972168,21.9459552 18.2119141,21.9459552 C19.0263672,21.9459552 19.6926269,22.5832685 19.7253418,23.3787647 Z M30.701416,25.7126867 L5.671875,25.7126867 C5.41259762,25.7126867 5.20239256,25.9200607 5.20239256,26.1761435 C5.20239256,26.4322262 5.41259762,26.6398414 5.671875,26.6398414 L28.6062012,26.6398414 C28.3183594,26.9581363 28.1015625,27.3441895 27.9858399,27.7772635 L27.7397461,28.6988721 C27.5236816,29.5078718 26.7802734,30.0728454 25.9318847,30.0728454 L6.07763675,30.0728454 C5.24511719,30.0728454 4.50537112,29.5211341 4.27880862,28.7311839 L3.99096681,27.7285547 C3.65039062,26.5417004 2.53930662,25.7126867 1.2890625,25.7126867 L1.03808594,25.7126867 C0.983398437,25.7126867 0.938720687,25.6688006 0.938720687,25.615028 L0.938720687,24.403337 C0.938720687,24.3495644 0.983398437,24.3059194 1.03808594,24.3059194 L30.9619141,24.3059194 C31.0166016,24.3059194 31.0612793,24.3495644 31.0612793,24.403337 L31.0612793,25.615028 C31.0612793,25.6688006 31.0166016,25.7126867 30.9619141,25.7126867 L30.701416,25.7126867 Z"></path>
            </g>
        </g>
    </g>
</svg>