<?xml version="1.0" encoding="UTF-8"?>
<svg width="58px" height="46px" viewBox="0 0 58 46" version="1.1" xmlns="http://www.w3.org/2000/svg" xmlns:xlink="http://www.w3.org/1999/xlink">
    <!-- Generator: Sketch 55.1 (78136) - https://sketchapp.com -->
    <title>menu_icon4</title>
    <desc>Created with Sketch.</desc>
    <defs>
        <rect id="path-1" x="0" y="0" width="58" height="46"></rect>
    </defs>
    <g id="menu_icon4" stroke="none" stroke-width="1" fill="none" fill-rule="evenodd">
        <mask id="mask-2" fill="white">
            <use xlink:href="#path-1"></use>
        </mask>
        <use id="Mask" fill="#D8D8D8" opacity="0" xlink:href="#path-1"></use>
        <g id="004-cola" mask="url(#mask-2)" fill="#FFFFFF" fill-rule="nonzero">
            <g transform="translate(20.000000, 5.000000)" id="Shape">
                <path d="M18.9930286,0.42971828 C18.9468894,0.149872646 18.6846381,-0.0394503842 18.4059463,0.00701250162 L14.1006755,0.727988915 C13.7739882,0.782729695 13.5080245,1.01397615 13.4064651,1.33120574 L12.4173877,4.41912072 L1.45188731,4.41912072 C1.02151931,4.41912072 0.639146739,4.67787117 0.477394173,5.07814651 C0.235825929,5.67602284 -0.0423354926,6.77537823 0.00539478284,8.61600412 C0.0642620886,10.8814721 0.60175804,13.6452147 1.60303315,16.8308621 C3.55467108,23.0392695 3.01266729,29.1686365 2.55419149,32.1201001 C2.5406679,32.2071512 2.52687915,32.2936684 2.51282525,32.3796515 C2.50858256,32.4058203 2.50433987,32.4322561 2.50009718,32.4576238 C2.4780882,32.5895357 2.45554892,32.7203796 2.43247927,32.8493542 C2.33648842,33.3826097 2.47941409,33.9273474 2.82466305,34.3436445 C3.01744035,34.5759591 3.26086472,34.7532659 3.53186665,34.8643496 C3.74691801,34.952736 3.97947057,35 4.21838709,35 L13.0471622,35 C13.2741462,35 13.4952964,34.9570085 13.701067,34.877167 C13.9850621,34.7668843 14.2404191,34.5853051 14.4408863,34.3433775 C14.7858701,33.9273474 14.9290609,33.3826097 14.83307,32.8493542 C14.8118565,32.7318618 14.7914386,32.6125002 14.7712858,32.4926045 C14.7678386,32.4717763 14.7641263,32.4512151 14.7606791,32.4303869 C14.6904095,32.0071471 14.626504,31.5710899 14.5700231,31.1288911 C14.5700231,31.1286241 14.5700231,31.1286241 14.5700231,31.128357 C14.4899424,30.4997725 14.424711,29.8594386 14.3759201,29.211361 C14.3547066,28.9283111 14.1088957,28.7168247 13.8286129,28.7379199 C13.5475346,28.7592821 13.336991,29.0062833 13.3584697,29.2890662 C13.4022225,29.8690517 13.4589684,30.4426284 13.5271166,31.0081943 C13.390555,31.1128694 13.2232339,31.1713486 13.0471622,31.1713486 L4.21838709,31.1713486 C4.04311093,31.1713486 3.87685046,31.1134034 3.74055397,31.0097965 C4.17489951,27.454582 4.32074205,22.071826 2.57593525,16.5208422 C1.36650312,12.6734988 1.02920917,10.012295 1.02443618,8.24750517 L2.15246166,8.24750517 L1.26653473,9.79279775 C1.07614393,10.125248 1.18937076,10.5516921 1.51950515,10.7436854 L3.72888664,12.0283585 C3.83734041,12.0913772 3.95613576,12.1212843 4.07334007,12.1212843 C4.31225667,12.1212843 4.54507431,11.9965822 4.67315057,11.7733465 L5.94860956,9.54873394 C6.13926551,9.21628369 6.02577352,8.78957254 5.69563913,8.59757919 L5.09317699,8.24750517 L8.37092106,8.24750517 C8.65279487,8.24750517 8.88110467,8.01759377 8.88110467,7.7337427 C8.88110467,7.44989169 8.65279487,7.21998036 8.37092106,7.21998036 L1.06341585,7.21998036 C1.14031467,6.29045488 1.31373463,5.73450205 1.42245363,5.46533754 C1.42696147,5.45385531 1.43862887,5.44664553 1.45188731,5.44664553 L12.0880488,5.44664553 L11.5200586,7.21998036 L10.7447068,7.21998036 C10.4630981,7.21998036 10.2345231,7.44989169 10.2345231,7.7337427 C10.2345231,8.01759377 10.4630981,8.24750517 10.7447068,8.24750517 L16.2450907,8.24750517 C16.2445603,8.35805484 16.2432345,8.47180892 16.2400525,8.58930136 C16.1838368,10.758372 15.6622509,13.4270526 14.689614,16.5208422 C13.6936423,19.6891327 13.2099755,23.1556938 13.2513417,26.8249293 C13.2547889,27.1063771 13.4825684,27.3325501 13.7615253,27.3325501 L13.767359,27.3325501 C14.0492329,27.3293457 14.2748909,27.0967641 14.2717089,26.8131801 C14.2314034,23.2534261 14.6991601,19.8950115 15.6622509,16.8308621 C17.0055931,12.5578756 17.3163702,9.65367604 17.2556466,7.75697417 C17.2559118,7.74923037 17.2569725,7.74148657 17.2569725,7.7337427 C17.2569725,7.71184641 17.2551163,7.69048415 17.2524647,7.6693889 C17.201022,6.34172431 16.9671436,5.52114644 16.7881551,5.07814651 C16.6264025,4.6776041 16.2437648,4.41912072 15.813662,4.41912072 L13.4894628,4.41912072 L14.3515245,1.72774278 L18.5735326,1.02065191 C18.8514289,0.974188952 19.0391679,0.709563913 18.9930286,0.42971828 Z M3.43667125,33.0314675 C3.48864422,32.7417419 3.5414127,32.4261144 3.5928553,32.0877897 C3.79040566,32.1606884 4.00147947,32.1988734 4.21838709,32.1988734 L13.0471622,32.1988734 C13.2640698,32.1988734 13.4754088,32.1604213 13.6732243,32.0875226 C13.7212197,32.4060874 13.7731927,32.7209136 13.8288781,33.0314675 C13.8707746,33.2648503 13.8081949,33.5030395 13.6573142,33.6851528 C13.5814761,33.7764764 13.4881369,33.8483071 13.3839258,33.8974403 C13.2799799,33.9463065 13.1651621,33.9724752 13.0471622,33.9724752 L4.21838709,33.9724752 C4.12982095,33.9724752 4.04311093,33.9577886 3.96117391,33.9297507 C3.82514264,33.8830207 3.70290012,33.7991739 3.60823509,33.6851528 C3.45708918,33.5030395 3.39450949,33.2648503 3.43667125,33.0314675 Z M3.26112987,8.36873597 L4.9003997,9.32175987 L3.95401442,10.9727957 L2.31474459,10.0197718 L3.26112987,8.36873597 Z M15.813662,5.44664553 C15.8269204,5.44664553 15.8385878,5.45385531 15.8430957,5.46533754 C15.9605652,5.75586431 16.1300076,6.31261825 16.2058458,7.21998036 L12.5921336,7.21998036 L13.1601238,5.44664553 L15.813662,5.44664553 Z"></path>
                <path d="M6.72970688,14.8271786 C6.87013598,14.9434901 7.04046109,15 7.20996342,15 C7.42691535,15 7.64249598,14.9072799 7.79142763,14.7273262 L9.82627811,12.270519 C9.95491333,12.115254 10.0155282,11.9193898 9.99660322,11.7188621 C9.97767822,11.5180601 9.88195599,11.3370091 9.72671606,11.2083532 L7.27002979,9.17317534 C6.94995018,8.90763387 6.47353354,8.9526223 6.20830904,9.2727534 L4.17345857,11.7298349 C4.04482334,11.8848255 3.98448272,12.0806898 4.00340772,12.2814918 C4.02205845,12.4820195 4.11805487,12.6633448 4.27302062,12.7917264 L6.72970688,14.8271786 Z M6.82899468,10.1782827 L8.82133242,11.8291386 L7.17101626,13.8220712 L5.17840426,12.1712153 L6.82899468,10.1782827 Z"></path>
                <path d="M8.33908776,19.559758 L11.3745782,21.8309932 C11.5225704,21.9417632 11.6984799,22 11.880093,22 C11.9206182,22 11.9614436,21.9969981 12.0025693,21.9909943 C12.2262086,21.958874 12.424332,21.8414998 12.5597163,21.6604854 L14.8312309,18.6246671 C14.9666152,18.4436527 15.0233505,18.2206117 14.9912306,17.9969704 C14.9588104,17.7730289 14.8414373,17.5749037 14.6604245,17.4398183 L11.6246339,15.1682829 C11.2509012,14.8888063 10.7192701,14.9653547 10.439796,15.3390909 L8.1682814,18.3746091 C7.88880733,18.7483452 7.96535494,19.2799812 8.33908776,19.559758 L8.33908776,19.559758 Z M11.1800571,16.2780842 L13.7217399,18.1797859 L11.8197554,20.7214921 L9.27807254,18.8197904 L11.1800571,16.2780842 Z"></path>
                <path d="M12.6401451,11 C12.647736,11 12.655327,10.9997699 12.6629179,10.9995399 L14.4527702,10.9286909 C14.7667592,10.9162693 15.0119697,10.6510458 14.9995481,10.3370561 L14.9289294,8.54673951 C14.9162778,8.23320982 14.6494447,7.98845885 14.3372959,8.00042042 L12.5474435,8.07103931 C12.2334545,8.08346091 11.9882441,8.34891448 12.0004356,8.66267418 L12.0712844,10.4525307 C12.0832459,10.7589295 12.3362773,11 12.6401451,11 Z M14.0568911,8.89730387 L14.1026667,10.0566506 L12.9430927,10.1026564 L12.897317,8.94307968 L14.0568911,8.89730387 Z"></path>
                <path d="M6.23168475,15.0026095 L4.48227366,15.1803991 C4.33978766,15.1949475 4.21142192,15.2638382 4.12071013,15.3750904 C4.03021227,15.4861286 3.98827946,15.6256217 4.00282757,15.7683241 L4.18040021,17.5175506 C4.19494833,17.660253 4.26405184,17.7886209 4.37508822,17.8791202 C4.47179041,17.9580665 4.59010088,18 4.71311801,18 C4.73151712,18 4.74991619,17.9989302 4.7683153,17.9972187 L6.5177264,17.8194292 C6.66042633,17.8048808 6.78879207,17.7357761 6.87928987,17.6247378 C6.96978773,17.5136996 7.01172054,17.3739925 6.99717243,17.2315042 L6.81959984,15.4820637 C6.78964784,15.1878872 6.52585625,14.9737268 6.23168475,15.0026095 L6.23168475,15.0026095 Z M4.97049133,17.1491348 L4.85068331,15.9705035 L6.02950872,15.8506935 L6.14931675,17.0295387 L4.97049133,17.1491348 Z"></path>
            </g>
        </g>
    </g>
</svg>