<?xml version="1.0" encoding="UTF-8"?>
<svg width="58px" height="46px" viewBox="0 0 58 46" version="1.1" xmlns="http://www.w3.org/2000/svg" xmlns:xlink="http://www.w3.org/1999/xlink">
    <!-- Generator: Sketch 55.1 (78136) - https://sketchapp.com -->
    <title>menu_icon5</title>
    <desc>Created with Sketch.</desc>
    <defs>
        <rect id="path-1" x="0" y="0" width="58" height="46"></rect>
    </defs>
    <g id="menu_icon5" stroke="none" stroke-width="1" fill="none" fill-rule="evenodd">
        <mask id="mask-2" fill="white">
            <use xlink:href="#path-1"></use>
        </mask>
        <use id="Mask" fill="#D8D8D8" opacity="0" xlink:href="#path-1"></use>
        <g id="003-ice-cream" mask="url(#mask-2)" fill="#FFFFFF" fill-rule="nonzero">
            <g transform="translate(19.000000, 7.000000)" id="Shape">
                <path d="M19.9342632,14.101888 C20.3055239,13.1715976 20.3404661,12.3183489 20.0349789,11.5600175 C19.8535878,11.1101044 19.575078,10.7571228 19.2865479,10.4862182 C19.3551477,10.2832916 19.4250321,9.99551838 19.4985135,9.57808366 C19.5755919,9.13924844 19.6390531,8.30740019 19.1966232,7.66614184 C18.9818315,7.35545763 18.6814828,7.08631539 18.278363,6.8428538 C18.1067351,6.73937629 17.929198,6.65050148 17.7485777,6.57245273 C18.014755,5.05025101 17.327216,4.08194335 16.6692237,3.52477624 C16.4631675,3.35029961 16.1517709,3.37270713 15.9737199,3.57462674 C15.7956689,3.77654629 15.8182786,4.08143985 16.0243347,4.25591648 C16.6371077,4.77481454 16.8966049,5.44578178 16.7992292,6.25522246 C16.7958891,6.25421538 16.7925491,6.25346012 16.789209,6.25270479 C16.7599192,6.24515166 16.7303725,6.23785034 16.7010828,6.23029721 C16.2756102,6.12455385 15.8398605,6.03995911 15.4059093,5.97097408 C15.2304276,5.94327941 15.0456964,5.91634 14.847862,5.88965234 C14.1824188,5.8000222 13.5077262,5.73733147 12.8551293,5.67665491 C12.1896862,5.61471944 11.5262984,5.54573448 10.8611121,5.47951894 C10.8587998,5.47926719 10.8564874,5.47901537 10.8541751,5.47876361 C9.84650394,5.3815804 8.76355292,5.41103748 7.78851161,5.14793779 C7.46863642,5.06158065 7.16520462,4.92864606 6.91033217,4.71665571 C6.89774272,4.70608133 6.88515327,4.69601053 6.87282073,4.6851844 C6.86768211,4.68090433 6.86305744,4.67586893 6.85817579,4.67158885 C7.11536064,4.02907167 8.11763627,2.21884495 11.381391,1.62466763 C11.4183887,1.61812164 12.1799229,1.48090691 12.8435676,1.12012044 C12.9358047,1.78655579 13.2351257,2.59171645 14.0529271,3.19269152 C14.270802,3.35281728 14.5798862,3.30951283 14.7432924,3.09601182 C14.9066985,2.88251082 14.8625069,2.57963149 14.644632,2.41950567 C14.1127913,2.02875855 13.8278583,1.45749231 13.797027,0.721064919 C13.7854652,0.443362533 13.6202606,0.195872554 13.3661589,0.0752747464 C13.1092311,-0.0463302058 12.8055423,-0.01913904 12.5732795,0.146273869 C12.0494035,0.519648876 11.2146449,0.671969742 11.2041108,0.673732149 C7.25769865,1.39228385 6.14288858,3.72795469 5.88493299,4.46715157 C5.5992292,4.62979499 5.04477887,4.97925183 4.5381171,5.49084858 C3.75602864,6.28090304 3.3852817,7.1512721 3.44257663,8.04203458 L2.8220958,8.50881623 C1.6877592,9.29987771 1.01820519,10.2628982 0.83167552,11.3709382 C0.650541383,12.4467516 0.973242796,13.4115345 1.26536978,14.0177968 C0.528243714,14.2783788 0,14.9702429 0,15.7811942 L0,17.3280694 C0,18.2583598 0.695760689,19.0325527 1.60425766,19.1773205 L6.86382824,28.7486108 C6.99306291,28.9835123 7.29212702,29.0713801 7.53184072,28.9449915 C7.77155441,28.8183512 7.8614792,28.5252908 7.73224446,28.2903894 L2.73808036,19.201994 L18.2614057,19.201994 L11.5471096,31.4208982 C11.3361717,31.8045958 10.9446137,32.0337065 10.4998715,32.0337065 C10.0551294,32.0337065 9.66357129,31.8045958 9.45289043,31.4208982 L8.81750781,30.2650219 C8.68852998,30.0301204 8.38946593,29.9422527 8.14975224,30.0686412 C7.90978157,30.1950298 7.82011376,30.4880902 7.9493485,30.7232434 L8.58447421,31.8791197 C8.97037985,32.5810546 9.68618094,33 10.4998715,33 C11.3135621,33 12.0296201,32.5810546 12.4152688,31.8791197 L19.3954854,19.1775723 C20.3039823,19.0328045 21,18.2588633 21,17.3280694 L21,15.781446 C21,15.0460257 20.5650211,14.4082921 19.9342632,14.101888 Z M5.23002385,6.18044677 C5.5740503,5.82947928 5.95378967,5.56436543 6.21200216,5.40373617 C6.21302994,5.40449143 6.21380068,5.40524676 6.21482839,5.40600208 C6.25747845,5.44376762 6.30089924,5.47926719 6.34509084,5.51375967 C6.35177093,5.51879507 6.35819418,5.52408222 6.36487427,5.52911762 C6.52725269,5.65298849 6.70556066,5.75772483 6.89003485,5.84659971 C7.55779041,6.16861356 8.22785832,6.24112334 8.95496424,6.28694552 C9.75760686,6.33755128 10.5682143,6.42063543 11.3521013,6.50095003 C11.5681776,6.5231058 11.7847678,6.54526156 12.0018719,6.56691382 C12.2541751,6.59183907 12.5064782,6.61525367 12.7587814,6.63866827 C13.4021288,6.69833775 14.067572,6.7600214 14.7145164,6.84738563 C14.9164617,6.87457679 15.1035052,6.90201978 15.2805285,6.93046978 C15.6923839,6.9964335 16.1037255,7.07699992 16.5055606,7.17921859 C16.9400257,7.28949384 17.3721784,7.43098864 17.7614241,7.66589009 C18.043017,7.83583489 18.2452193,8.01308101 18.3798495,8.20769924 C18.5589282,8.46752594 18.6139108,8.91819437 18.5268122,9.41367783 C18.4895577,9.62516468 18.4476784,9.81827226 18.4099101,9.96958611 C15.8311249,9.25984632 7.34505413,9.07278115 6.31914114,9.05263955 C6.31580109,9.05238779 6.31246098,9.05238779 6.30912093,9.05238779 C6.30475318,9.05238779 6.30038535,9.05263955 6.29627451,9.05263955 C4.87417876,9.08914619 4.55276197,8.52795075 4.51730596,8.45594449 C4.27373826,7.67797505 4.51345202,6.91234233 5.23002385,6.18044677 Z M4.52594829,8.48405683 C4.52594829,8.48405683 4.52551646,8.48319751 4.52508475,8.48104899 C4.52335777,8.47546308 4.5216308,8.46987717 4.51990383,8.46472092 C4.51904039,8.46042399 4.52638,8.48405683 4.52594829,8.48405683 Z M1.80645992,11.5199861 C1.95111026,10.6768082 2.48757567,9.92703693 3.40095428,9.29182106 C3.40609284,9.28829632 3.41097449,9.28477157 3.41585613,9.280995 L3.72853734,9.04584174 C3.98906224,9.42878397 4.66837948,10.0574538 6.31014865,10.018933 C6.50078916,10.0229613 9.08188658,10.0778472 11.8245917,10.225888 C16.2912828,10.4673355 17.8069004,10.7659347 18.3181868,10.9504822 C18.6080014,11.1561784 18.9422647,11.4736604 19.1208295,11.9228182 C19.3410167,12.4767123 19.2875757,13.1343357 18.9620481,13.8808339 L4.31638832,13.9075215 L2.31877407,13.9075215 C2.08368511,13.5046894 1.62840885,12.5587893 1.80645992,11.5199861 Z M20.0136539,17.3280694 C20.0136539,17.8285883 19.5982015,18.2357005 19.0876858,18.2357005 L1.91257111,18.2357005 C1.40205541,18.2357005 0.986603046,17.8285883 0.986603046,17.3280694 L0.986603046,15.781446 C0.986603046,15.2809272 1.40205541,14.8738149 1.91257111,14.8738149 L1.98630943,14.8738149 C2.00712057,14.8765844 2.02793171,14.8780951 2.04925674,14.8780951 L4.32229768,14.8738149 L19.0876858,14.8738149 C19.5982015,14.8738149 20.0136539,15.2809272 20.0136539,15.781446 L20.0136539,17.3280694 Z"></path>
            </g>
        </g>
    </g>
</svg>