<?xml version="1.0" encoding="UTF-8"?>
<svg width="126px" height="24px" viewBox="0 0 126 24" version="1.1" xmlns="http://www.w3.org/2000/svg" xmlns:xlink="http://www.w3.org/1999/xlink">
    <!-- Generator: Sketch 55.1 (78136) - https://sketchapp.com -->
    <title>itemsize_hover</title>
    <desc>Created with Sketch.</desc>
    <g id="Symbols" stroke="none" stroke-width="1" fill="none" fill-rule="evenodd">
        <g id="item-cart-copy-14" transform="translate(-146.000000, -300.000000)" fill="#9013FE">
            <path d="M268.916931,300.717058 C267.90449,300.975 266.8931,301.193314 265.881935,301.404892 C265.376367,301.510337 264.87086,301.615782 264.365278,301.721262 C263.859725,301.829181 263.354173,301.941913 262.84847,302.059868 C261.83708,302.296398 260.825164,302.559049 259.812047,302.880643 C259.305489,303.041457 258.79863,303.217015 258.291396,303.411443 C258.037779,303.508639 257.784072,303.610476 257.530259,303.717742 C257.276447,303.826315 257.022529,303.940112 256.768522,304.059614 C257.088884,304.101923 257.402324,304.150865 257.709893,304.210014 C258.017462,304.269061 258.31913,304.335153 258.615903,304.407123 C259.209478,304.551061 259.783487,304.718371 260.346085,304.899326 C261.471295,305.261235 262.550842,305.677654 263.649849,306.070427 C264.199353,306.265507 264.753767,306.459797 265.321184,306.637762 C265.888617,306.815623 266.469053,306.977915 267.070692,307.114843 C268.273954,307.388663 269.561905,307.561129 271,307.554324 C269.839848,309.121256 268.550981,310.376803 267.14469,311.396472 C266.441544,311.906307 265.709043,312.357199 264.948597,312.758564 C264.758497,312.858888 264.566625,312.956153 264.373056,313.050463 C264.179472,313.14546 263.984176,313.238154 263.787169,313.32772 C263.393184,313.507025 262.992367,313.675194 262.584943,313.833328 C260.955186,314.466652 259.219313,314.937477 257.38881,315.329253 C255.558367,315.728247 253.63328,316.04362 251.625155,316.350745 C251.042331,316.438318 250.463892,316.597345 249.888621,316.790019 C249.31335,316.982659 248.741248,317.209772 248.171143,317.439875 C247.030917,317.900149 245.898664,318.372384 244.764505,318.604721 C244.177026,318.723673 243.582325,318.778011 242.981932,318.787084 C242.38157,318.797086 241.775577,318.765913 241.165695,318.725151 C239.945945,318.643902 238.710549,318.523025 237.473862,318.61809 C235.881495,318.748728 234.31958,319.160714 232.775699,319.589849 C232.389747,319.697116 232.004877,319.804073 231.620953,319.91079 C231.237028,320.016063 230.85402,320.117728 230.471762,320.215818 C229.707247,320.410211 228.9456,320.575837 228.185139,320.679735 C218.735432,321.963912 208.897852,323.446296 199.158234,324.30058 C198.549418,324.35045 197.941037,324.40032 197.333197,324.450087 C196.725357,324.5 196.117997,324.546733 195.511238,324.590142 C194.297735,324.676959 193.08662,324.750406 191.878838,324.808868 C190.670996,324.864169 189.466772,324.919228 188.266679,324.951364 C187.06663,324.984771 185.870815,325.001509 184.680181,325 C184.084834,324.997625 183.490914,324.997247 182.898375,324.990029 C182.305821,324.983121 181.714693,324.971401 181.125082,324.954698 C179.945845,324.921291 178.77272,324.867846 177.606607,324.792715 C175.275957,324.652522 172.973793,324.429981 170.706225,324.104847 C171.739628,323.181171 173.409702,322.886522 173.885688,321.407506 C173.168263,321.461019 172.42016,321.510889 171.649338,321.557769 C170.87793,321.603137 170.083894,321.649879 169.275157,321.697446 C167.656693,321.789693 165.979066,321.872833 164.305839,321.951745 C163.468797,321.991613 162.632882,322.031413 161.806021,322.070766 C161.390579,322.088054 160.977419,322.105273 160.567517,322.122354 C160.156549,322.13593 159.748855,322.149369 159.34544,322.162704 C157.729558,322.207315 156.17431,322.207625 154.748063,322.154902 C156.389727,321.199022 158.223638,320.606391 159.901611,320.198599 C160.111261,320.147423 160.318735,320.101059 160.522725,320.055622 C160.726624,320.009671 160.927446,319.966881 161.124438,319.926841 C161.518664,319.847619 161.896762,319.775822 162.253973,319.712067 C162.610989,319.650374 162.946923,319.592358 163.256083,319.538948 C163.410566,319.512312 163.558367,319.48681 163.69875,319.462614 C163.838652,319.437318 163.971182,319.413397 164.095603,319.390919 C164.082494,319.527984 164.030374,319.626659 163.952141,319.699659 C163.932576,319.717944 163.911389,319.734578 163.88876,319.749804 C163.877453,319.757434 163.865786,319.764686 163.853788,319.771629 C163.842211,319.778021 163.830348,319.784586 163.8182,319.791322 C163.767642,319.816721 163.712159,319.83724 163.653387,319.854562 C163.418299,319.923782 163.130461,319.941138 162.893391,320.007849 C163.122052,320.332846 163.394965,320.465821 163.686527,320.476131 C163.72297,320.477403 163.759699,320.476784 163.796683,320.474379 C163.814582,320.472832 163.832556,320.471251 163.850575,320.469704 C163.869164,320.467264 163.887814,320.46479 163.906523,320.462349 C163.981302,320.45087 164.056862,320.432826 164.132782,320.409249 C164.284622,320.362163 164.437933,320.293046 164.589518,320.210594 C165.195811,319.880786 165.774326,319.337475 166.120065,319.134696 C165.71731,318.86579 165.220572,318.719274 164.667795,318.645758 C164.391414,318.608982 164.101008,318.590492 163.801338,318.58403 C163.503079,318.578153 163.193002,318.584786 162.879802,318.597091 C161.625546,318.646686 160.296361,318.782238 159.199486,318.600253 C159.531201,317.879665 160.373513,317.673964 161.264986,317.503905 C162.15643,317.335048 163.097021,317.208088 163.622304,316.674195 C162.372298,316.580641 160.984791,316.435809 159.522071,316.248736 C158.059441,316.061183 156.522016,315.829224 154.973631,315.548358 C153.42508,315.26811 151.866123,314.936652 150.355787,314.566116 C149.97874,314.465414 149.604021,314.37217 149.23277,314.281229 C149.047655,314.229056 148.863336,314.178568 148.679902,314.129832 C148.496785,314.08199 148.314523,314.034388 148.133207,313.987062 C147.955194,313.934133 147.778173,313.883198 147.602217,313.834428 C147.425691,313.786757 147.250217,313.739396 147.075898,313.69231 C146.71253,313.581675 146.353607,313.479633 146,313.387214 C146.197593,313.306824 146.395862,313.226193 146.594897,313.145253 C146.694421,313.104766 146.794141,313.064211 146.894057,313.023586 C146.944014,313.003308 146.994032,312.98303 147.044095,312.962718 L147.119219,312.932335 C147.131622,312.927111 147.14455,312.922506 147.156548,312.9168 L147.192211,312.899341 C147.569723,312.715293 147.950494,312.529664 148.335289,312.342076 C148.530045,312.245155 148.725821,312.147718 148.922693,312.049765 C149.1191,311.952328 149.315206,311.863311 149.513821,311.758416 C149.712044,311.65737 149.910869,311.55818 150.110414,311.461396 C150.210044,311.41376 150.309989,311.365987 150.41025,311.318042 C150.510721,311.267759 150.611522,311.217305 150.712653,311.166713 C152.327769,310.382164 154.011372,309.639237 155.846305,309.174082 C156.086573,309.111839 156.328132,309.049253 156.570953,308.986357 C156.692341,308.955562 156.814044,308.924698 156.936062,308.893766 C157.058576,308.861287 157.181391,308.828739 157.30452,308.796122 C157.55075,308.732298 157.798225,308.668165 158.046902,308.603723 C158.296585,308.537871 158.5475,308.471676 158.799585,308.405171 C159.305873,308.272883 159.816921,308.139358 160.332579,308.004631 C160.852037,307.871071 161.376119,307.736309 161.904645,307.600413 C162.170305,307.534011 162.437091,307.467369 162.704958,307.400418 C162.975513,307.334566 163.247164,307.268439 163.519896,307.202072 C164.062703,307.072912 164.609894,306.946295 165.161245,306.822119 C166.263976,306.573766 167.38342,306.335105 168.51797,306.105106 C169.085282,305.990175 169.656244,305.877134 170.231034,305.766636 C170.807191,305.658854 171.386967,305.5531 171.970151,305.449304 C173.136504,305.241679 174.316492,305.041753 175.508522,304.848459 C175.806541,304.800652 176.105296,304.752741 176.404771,304.704727 C176.704277,304.656919 177.004473,304.610005 177.305074,304.5656 C177.906503,304.477408 178.510679,304.388838 179.117408,304.29989 C180.330971,304.125706 181.55494,303.957125 182.787738,303.793149 C192.650561,302.495156 203.079494,301.634891 213.26457,300.645226 C214.115712,300.564733 214.988326,300.482178 215.879725,300.39787 C216.325454,300.357211 216.775868,300.316105 217.230637,300.274621 C217.685481,300.236609 218.144665,300.198218 218.607858,300.159484 C219.534318,300.085418 220.476861,300.010081 221.432753,299.933678 C221.910736,299.897349 222.392053,299.860746 222.876373,299.823936 C223.360708,299.78833 223.848016,299.750523 224.338103,299.719316 C226.298327,299.5894 228.301346,299.468179 230.325493,299.360259 C232.34976,299.260348 234.395244,299.179442 236.440128,299.113522 C236.695742,299.105686 236.951356,299.097815 237.20691,299.089945 C237.46248,299.083861 237.717989,299.077743 237.973408,299.07166 C238.484276,299.061727 238.994768,299.051795 239.504525,299.041896 C240.524084,299.02454 241.54079,299.01227 242.55194,299.005637 C243.057507,299.003746 243.561708,299.001856 244.064152,299 C244.566656,299.003849 245.067419,299.007664 245.566109,299.011479 C246.563504,299.022203 247.552626,299.039009 248.530786,299.062552 C249.019881,299.076059 249.506199,299.089532 249.989453,299.102902 C250.231072,299.110944 250.471926,299.118987 250.711968,299.12696 C250.952026,299.137134 251.191273,299.147238 251.429649,299.157308 C252.383199,299.20003 253.323068,299.2499 254.246526,299.307434 C255.169983,299.364968 256.077059,299.430201 256.965019,299.503648 C257.408976,299.539392 257.848204,299.580842 258.282326,299.624319 C258.716433,299.667625 259.14542,299.712992 259.568971,299.760525 C260.590137,299.87549 261.516402,299.907248 262.37358,299.9112 C262.802176,299.913193 263.21349,299.90821 263.610748,299.903226 C263.809377,299.900958 264.004508,299.898724 264.1965,299.896524 C264.388522,299.89704 264.577436,299.897521 264.763602,299.898002 C266.253126,299.913675 267.569262,300.038642 268.916931,300.717058" id="itemsize_hover" transform="translate(208.500000, 312.000000) rotate(3.000000) translate(-208.500000, -312.000000) "></path>
        </g>
    </g>
</svg>