<svg xmlns="http://www.w3.org/2000/svg" xmlns:xlink="http://www.w3.org/1999/xlink" width="223px" height="61px" viewBox="0 0 243 75">
    <defs>
        <path id="a" d="M16.311.279c.171.125.394.156.602.207-.81.815-1.808 1.468-2.863 2.004A14.801 14.801 0 0 1 8.38 4.01c-2.543.104-5.185-.398-7.225-1.77a3.3 3.3 0 0 1 .673-.223c-.256-.106-.558-.067-.81.044-.33.15-.625.37-.836.645.19-.1.38-.2.58-.286.974.572 2.014 1.07 3.137 1.372C4.967 4.664 6.23 5.41 7.68 5.66a5.76 5.76 0 0 0 3.928-.739c.835-.495 1.492-1.182 2.198-1.809.501-.458 1.13-.777 1.704-1.152.652-.39 1.224-.875 1.768-1.379.2.035.397.082.593.132-.342-.26-.775-.474-1.231-.474-.11 0-.22.012-.33.039zm-7.08 3.944a13.71 13.71 0 0 0 1.57-.28c.441-.126.843.162 1.168.386-.792.537-1.713.935-2.69 1.09a5.223 5.223 0 0 1-3.165-.578c.27-.276.619-.62 1.069-.552.5.029 1.003-.007 1.504-.034-.12.124-.225.261-.292.414.251-.181.5-.413.836-.446z"/>
        <path id="c" d="M.244 1.23C.04 2.058.112 3.364.762 3.624c.794.382 1.588-.91 1.32-2.148-.236.333-.507.87-.865.59-.5-.198-.69-1.293-.19-1.717C.742.577.362.7.243 1.23z"/>
        <path id="e" d="M.553.924a2.904 2.904 0 0 0-.418 1.427c.059.586.355 1.064.715 1.314.36.248.78.267 1.098-.054.387-.424.277-1.268.28-1.898-.325.607-.931.495-1.144-.219C.863.952 1.237.53 1.448.188 1.108.274.791.542.553.924"/>
    </defs>
    <g fill="none" fill-rule="evenodd">
        <path fill="#F89E1E" d="M44.756 60.527L15.918 24.273c11.953-8.71 27.586-10.166 42.368-11.321-2.243 8.531-2.484 17.433-3.528 26.189-1.045 8.755-3.027 17.702-8.216 24.858-.425.586-.877 1.165-1.457 1.6.703-2.516 1.28-3.006-.329-5.072"/>
        <path fill="#EE4423" d="M36.502 32.445c0 2.188-2.24 3.96-5.002 3.96-2.762 0-5.001-1.772-5.001-3.96 0-2.187 2.24-3.96 5.001-3.96 2.763 0 5.002 1.773 5.002 3.96M51.39 40.8c0 2.187-2.24 3.96-5.002 3.96-2.762 0-5.002-1.773-5.002-3.96 0-2.188 2.24-3.961 5.002-3.961 2.763 0 5.002 1.773 5.002 3.96M54.83 22.406c0 2.188-2.24 3.96-5.002 3.96-2.762 0-5.002-1.772-5.002-3.96 0-2.187 2.24-3.96 5.002-3.96 2.762 0 5.001 1.773 5.001 3.96M41.192 50.584c-1.342 0-2.56.42-3.459 1.101l5.223 6.567c1.892-.565 3.238-2.011 3.238-3.707 0-2.188-2.24-3.96-5.002-3.96"/>
        <path fill="#FBB037" d="M18.625 25.474c-.908.7.266-.19.437-.314a50.306 50.306 0 0 1 3.305-2.192 49.732 49.732 0 0 1 5.414-2.844c.214-.096 1.361-.614.324-.153.804-.357 1.643-.655 2.472-.949a49.943 49.943 0 0 1 4.758-1.42c1.571-.384 3.257-.827 4.877-.937-1.264.086.329-.031.57-.057.496-.052.994-.097 1.493-.138.872-.072 1.745-.129 2.619-.182 1.87-.114 3.744-.236 5.619-.26.997-.014 1.995.001 2.99.067.49.033 1 .051 1.485.138-1.099-.196.489.105.68.143 2.236.439 4.826-.631 5.376-3.03.494-2.152-.654-4.865-3.052-5.336-3.413-.67-6.83-.737-10.291-.559-3.34.172-6.665.396-9.976.872-5.785.83-11.401 2.732-16.593 5.383-3.1 1.582-5.94 3.513-8.688 5.633-.82.633-1.28 2.093-1.28 3.067 0 1.064.476 2.335 1.28 3.068.833.758 1.926 1.322 3.09 1.27 1.237-.055 2.123-.524 3.09-1.27"/>
        <path fill="#FFF" d="M77.285 21.47c1.616 0 2.279-1.013 2.279-3.02 0-2.212-.663-3.035-2.279-3.035h-.663v6.054h.663zm-6.035 0h.902v-6.072h-.902v-2.779h5.526c2.09 0 3.4.137 4.709.806 1.955.995 2.924 3.07 2.924 5.077 0 2.041-.986 4.099-2.601 4.922-1.632.84-2.941.84-5.032.84H71.25V21.47zM92.534 21.726c1.225 0 1.497-1.131 1.497-3.31 0-2.178-.272-3.31-1.497-3.31-1.223 0-1.496 1.132-1.496 3.31 0 2.179.273 3.31 1.496 3.31m0-9.347c4.506 0 6.512 3.294 6.512 6.037 0 2.744-2.006 6.037-6.512 6.037-4.505 0-6.51-3.293-6.51-6.037 0-2.743 2.005-6.037 6.51-6.037M100.484 21.47h1.02v-6.055h-1.02V12.62h5.475l4.199 6.09h.034v-3.294h-.97V12.62h4.66v2.796h-1.004v9.038h-3.808l-4.845-7.083h-.034v4.1h1.037v2.794h-4.744zM121.303 18.794l-.97-3.225h-.033l-1.054 3.225h2.057zm-6.63 2.675h.866l2.176-6.054h-.935V12.62h8.314v2.795h-.935l2.21 6.054h.85v2.795h-6.035V21.71h1.003l-.442-1.458h-2.959l-.492 1.458h.952v2.555h-4.574V21.47zM138.908 17.525h-2.176v-2.11h-1.326v6.054h1.02v2.796h-6.51v-2.796h1.019v-6.054h-1.327v2.11h-2.176V12.62h11.476zM140.288 21.47h.901v-6.055h-.901V12.62h11.017v3.722h-3.026v-.926h-2.618V17.2h2.277v2.366h-2.277v1.904h2.618v-.926h3.026v3.721h-11.017zM153.33 21.47h1.037v-6.055h-1.037V12.62h6.597v2.796h-1.088v6.054h2.72V19.6h2.77v4.665H153.33zM165.452 21.47h1.037v-6.055h-1.037V12.62h6.596v2.796h-1.088v6.054h2.72V19.6h2.771v4.665h-11zM184.16 21.726c1.224 0 1.496-1.131 1.496-3.31 0-2.178-.272-3.31-1.495-3.31-1.224 0-1.497 1.132-1.497 3.31 0 2.179.273 3.31 1.497 3.31m0-9.347c4.505 0 6.511 3.294 6.511 6.037 0 2.744-2.006 6.037-6.511 6.037-4.506 0-6.512-3.293-6.512-6.037 0-2.743 2.006-6.037 6.512-6.037"/>
        <path fill="#EB2027" d="M91.249 42.11c2.505 0 3.711-1.013 3.711-2.855 0-1.888-1.02-2.902-4.083-2.902h-2.97v5.757h3.342zM72.64 53.255h3.062V36.998h-3.062V29.49h21.252c9.977 0 13.828 4.605 13.828 9.856 0 3.776-2.274 9.625-12.528 9.625h-7.286v4.283h3.156v7.507H72.64v-7.507zM108.464 53.255h2.923V36.998h-2.923V29.49h18.05v7.507h-2.923v16.257h2.923v7.507h-18.05zM130.737 53.578l15.545-17.225h-7.889v3.869h-7.239V29.491h30.58v6.356L145.446 53.9h9.141v-4.283h7.239v11.146h-31.09zM165.895 53.578l15.545-17.225h-7.888v3.869h-7.24V29.491h30.58v6.356L180.605 53.9h9.142v-4.283h7.238v11.146h-31.09zM217.838 46.07l-2.645-8.658h-.093l-2.877 8.658h5.615zm-18.097 7.185h2.366l5.94-16.257h-2.552V29.49h22.69v7.507h-2.552l6.033 16.257h2.32v7.507h-16.473V53.9h2.738l-1.207-3.915h-8.073l-1.346 3.915h2.598v6.862h-12.482v-7.507z"/>
        <path fill="#FFF" d="M39.221 43.426l.184-.097.82-.431h1.23l3.302-.482.874.675-1.36.803-2.295.514-2.268-.416z"/>
        <path fill="#EE4423" d="M49.736 39.015c.575-.139 1.137.114 1.56.435a7.79 7.79 0 0 0-.592-.13c-.545.502-1.117.987-1.769 1.378-.574.375-1.202.693-1.703 1.152-.706.627-1.363 1.313-2.198 1.81a5.764 5.764 0 0 1-3.928.738c-1.451-.252-2.715-.998-3.784-1.869-1.122-.301-2.163-.8-3.137-1.371-.198.085-.39.184-.58.285.21-.275.506-.493.837-.645.251-.111.553-.15.81-.043-.232.055-.461.12-.673.223 2.04 1.371 4.682 1.874 7.225 1.77a14.807 14.807 0 0 0 5.67-1.522c1.056-.536 2.054-1.189 2.863-2.003-.208-.051-.43-.083-.601-.208m-10.198 4.563c.934.503 2.07.734 3.166.578.976-.156 1.897-.554 2.69-1.09-.325-.225-.727-.513-1.168-.387-.517.127-1.042.215-1.57.28-.337.033-.585.265-.837.447a1.47 1.47 0 0 1 .293-.415c-.501.028-1.004.063-1.505.034-.45-.067-.798.276-1.069.553"/>
        <g transform="translate(33 39)">
            <mask id="b" fill="#fff">
                <use xlink:href="#a"/>
            </mask>
            <path fill="#1F1A17" d="M.34 6.685l18.126-1.612-.464-5.14L-.125 1.546z" mask="url(#b)"/>
        </g>
        <g>
            <path fill="#A045E4" d="M32.076 33.912c-3.195.693-8.448 3.071-9.553-.533-1.325-4.605 3.756-6.406 7.606-7.864.55-.505.885-1.207 1.377-1.755 1-1.112 2.616-1.338 3.95-.765 1.99.855 2.334 2.474 3.868 2.771 1.303.253 2.543-.643 3.565-1.559 1.022-.916 2.097-1.95 3.417-2.048 1.06-.08 2.086.483 2.9 1.23.813.749 1.463 1.681 2.192 2.527a15.456 15.456 0 0 0 3.86 3.237c.423.248.873.49 1.16.91.286.42.34 1.086-.023 1.428-.488.459-1.26.035-1.88.227 1.11.588 2.132 1.37 3.017 2.308.26.275.521.598.54.99.026.516-.398.953-.856 1.076-.459.123-.94.007-1.398-.118.264.126.179.622-.092.728-.272.107-.575-.076-.753-.323-.18-.247-.276-.552-.429-.819-.392-.684-1.115-1.06-1.834-1.249-.72-.188-1.466-.224-2.184-.42-.979-.266-1.88-.823-2.868-1.043-1.034-.229-2.103-.077-3.157-.12-2.371-.097-4.737-1.178-7.056-.632-.49.115-.963.302-1.414.54-.679.572-1.507.543-2.268.758"/>
            <path fill="#202020" d="M50.863 35.096s-1.155-.416-3.064-.966a46.309 46.309 0 0 0-3.36-.864 23.605 23.605 0 0 0-1.992-.334 24.33 24.33 0 0 0-4.312-.136c-.034 0-.112.007-.11.004l-.132.017-.262.032-.517.062-.507.059-.249.027-.123.014-.015.001h-.004l.027-.005-.007.002-.03.006c.003-.003-.034.007-.05.009l-1.837.375c-.585.106-1.127.166-1.62.23-.986.12-1.775.264-2.307.42a6.836 6.836 0 0 0-.813.282s.28-.124.805-.305c.524-.183 1.303-.399 2.27-.632.482-.12 1.012-.247 1.56-.417l1.766-.57.07-.021.03-.009.007-.002.04-.008.014-.003.122-.025.246-.051.5-.102.51-.1.26-.051.131-.025.156-.018a15.461 15.461 0 0 1 4.505.141c.721.131 1.4.31 2.035.511 1.269.403 2.358.876 3.274 1.26a56.422 56.422 0 0 0 2.983 1.192"/>
            <path fill="#3E3B3B" d="M38.52 26l-.064-.117a5.135 5.135 0 0 0-1.08-1.392 4.6 4.6 0 0 0-1.726-1.003 4.04 4.04 0 0 0-2.385.009 4.459 4.459 0 0 0-1.807 1.067l.026-.033c-.742 1.036-1.427 1.877-1.833 2.523-.417.64-.62 1.044-.62 1.044s.128-.434.464-1.131c.326-.706.922-1.621 1.602-2.69l.007-.013.019-.02a4.463 4.463 0 0 1 1.99-1.25c.923-.285 1.905-.23 2.678.074.789.296 1.37.782 1.774 1.239A4.658 4.658 0 0 1 38.52 26M53.034 27.952s-.517-.564-1.32-1.5c-.404-.465-.865-1.041-1.402-1.634-.538-.588-1.172-1.198-1.972-1.584a3.321 3.321 0 0 0-1.214-.342 2.798 2.798 0 0 0-1.153.17c-.718.266-1.277.745-1.721 1.153-.44.42-.77.795-1 1.051l-.354.403.286-.454c.19-.288.466-.706.868-1.186.41-.467.942-1.032 1.747-1.392a3.109 3.109 0 0 1 1.355-.265 3.58 3.58 0 0 1 1.426.373c.907.44 1.566 1.136 2.084 1.776.517.648.918 1.26 1.268 1.767a65.123 65.123 0 0 1 1.102 1.664"/>
            <path fill="#FFF" d="M32.122 33.48c-1.646-1.702-2.309-4.305-.474-6.37a6.761 6.761 0 0 1 1.105-1.083c.233-.185.484-.356.766-.418.734-.159 1.413.456 1.879 1.094.51.7.926 1.495 1.117 2.365.191.87.143 1.817-.226 2.615"/>
            <path fill="#3E3B3B" d="M36.289 31.683s.095-.224.168-.646a4.467 4.467 0 0 0-.078-1.77c-.175-.731-.563-1.541-1.167-2.326-.291-.384-.654-.762-1.07-.94a.967.967 0 0 0-.306-.078c-.056-.007-.09 0-.13-.003l-.106.018-.027.004c.035-.006 0 .001.003.001l-.037.01c-.199.06-.404.205-.63.387a7.141 7.141 0 0 0-1.16 1.17c-.332.398-.59.832-.744 1.282-.308.9-.246 1.81-.036 2.524.207.72.521 1.265.757 1.62.115.182.221.315.29.405l.106.14-.127-.12c-.084-.079-.21-.191-.353-.358a5.438 5.438 0 0 1-1-1.576 4.348 4.348 0 0 1-.192-2.806c.145-.53.419-1.05.783-1.518a6.874 6.874 0 0 1 1.245-1.295c.234-.187.509-.4.87-.504l.068-.017.054-.012.027-.003.107-.016a1.596 1.596 0 0 1 .805.145c.608.296.977.767 1.277 1.207.593.877.934 1.804 1.031 2.593a4.298 4.298 0 0 1-.155 1.862c-.14.418-.273.62-.273.62"/>
            <path fill="#FFF" d="M46.5 32.394c-.833-.36-1.12-1.467-1.273-2.43-.133-.825-.246-1.667-.15-2.498.094-.831.424-1.663 1.033-2.17.227-.19.495-.333.78-.363.467-.048.918.21 1.285.531.663.578 1.145 1.366 1.542 2.184.318.653.593 1.355.606 2.094.023 1.323-.78 2.473-1.552 3.493"/>
            <path fill="#3E3B3B" d="M48.77 33.235l.392-.633c.236-.41.604-1.012.81-1.807.102-.393.142-.841.075-1.297-.069-.46-.246-.939-.487-1.428a10.286 10.286 0 0 0-.866-1.473 5.304 5.304 0 0 0-.568-.665c-.216-.21-.433-.39-.673-.508-.232-.119-.47-.149-.664-.09-.215.059-.434.216-.617.402-.368.378-.592.891-.717 1.397-.24 1.024-.108 2.046-.026 2.886.085.836.27 1.496.54 1.88.13.193.268.317.368.39.104.072.162.105.162.105s-.063-.022-.178-.076a1.595 1.595 0 0 1-.446-.346c-.346-.362-.64-1.042-.822-1.891-.172-.835-.424-1.868-.227-3.078.108-.592.334-1.227.811-1.76.24-.257.534-.5.936-.626.422-.133.87-.048 1.22.13.35.172.63.42.866.657.243.248.45.51.633.78.365.54.63 1.09.856 1.626.224.54.386 1.095.418 1.636.03.547-.072 1.041-.23 1.461-.323.838-.78 1.386-1.076 1.762-.308.372-.49.566-.49.566"/>
        </g>
        <g transform="translate(46 28)">
            <mask id="d" fill="#fff">
                <use xlink:href="#c"/>
            </mask>
            <path fill="#1F1A17" d="M-3.936 8.145h10.15v-12.25h-10.15z" mask="url(#d)"/>
        </g>
        <g transform="translate(34 28)">
            <mask id="f" fill="#fff">
                <use xlink:href="#e"/>
            </mask>
            <path fill="#1F1A17" d="M-3.53 7.355c1.483.633 3.03 1.034 4.73.95h5.118v-12.57H-3.92c-.093.573-.17 1.146-.23 1.715-.326 2.53-.105 5.333.406 7.92.145 1.164.215 1.985.215 1.985" mask="url(#f)"/>
        </g>
        <g fill="#A045E4">
            <path d="M24.837 33.052c-3.108.478-5.968 1.883-8.46 3.633-1.801 1.265-3.519 2.84-4.024 4.853-.405 1.613.022 3.291.448 4.9l1.606 6.074c.27 1.023.543 2.063.473 3.112-.12 1.819-1.245 3.45-1.722 5.22 3.639-1.151 6.545-4.044 7.467-7.436.614-2.258.386-4.654-.292-6.897-.447-1.478-1.09-2.931-1.158-4.462-.109-2.452 1.264-4.745 2.745-6.8.722-1.003 1.706-2.094 3.027-2.06"/>
            <path d="M24.098 33.194c-2.362 1.863-3.607 4.826-3.209 7.64.634 4.487 4.922 7.803 6.672 12.039 1.855 4.49.658 9.592-1.643 13.909.59.127 1.163-.234 1.615-.598 3.906-3.148 5.679-8.314 4.433-12.915-1.288-4.754-6.576-7.804-7.565-12.922l-.303-7.153z"/>
        </g>
    </g>
</svg>
