<svg xmlns="http://www.w3.org/2000/svg" xmlns:xlink="http://www.w3.org/1999/xlink" style="display:none"><defs><path id="a" d="M0 0h58v46H0z"/><path id="a" d="M0 0h58v46H0z"/><path id="a" d="M0 0h58v46H0z"/><path id="a" d="M0 0h58v46H0z"/><path id="a" d="M0 0h58v46H0z"/></defs><symbol id="btn-icon-arrow" viewBox="0 0 18 15"><path d="M9.262 15l8.664-15H.598z" fill="#FFF" fill-rule="evenodd"/></symbol><symbol id="catalog-icon-dessert" viewBox="0 0 58 46"><title>menu_icon5</title><g fill="none" fill-rule="evenodd"><mask id="b" fill="#fff"><use xlink:href="#a"/></mask><g mask="url(#b)" fill="#FFF" fill-rule="nonzero"><path d="M38.934 21.102c.372-.93.406-1.784.101-2.542a3.03 3.03 0 0 0-.748-1.074c.068-.203.138-.49.212-.908.077-.439.14-1.27-.302-1.912-.215-.31-.516-.58-.919-.823a4.416 4.416 0 0 0-.53-.27c.267-1.523-.42-2.491-1.079-3.048a.5.5 0 0 0-.695.05.476.476 0 0 0 .05.68c.613.52.873 1.19.775 2l-.01-.002-.088-.023a15.43 15.43 0 0 0-1.295-.259c-.176-.028-.36-.055-.558-.081-.666-.09-1.34-.153-1.993-.213-.665-.062-1.329-.131-1.994-.197l-.007-.001c-1.007-.097-2.09-.068-3.065-.331a2.283 2.283 0 0 1-.879-.431l-.037-.032c-.005-.004-.01-.01-.015-.013.257-.643 1.26-2.453 4.523-3.047.037-.007.799-.144 1.463-.505.092.667.391 1.472 1.209 2.073a.5.5 0 0 0 .69-.097.477.477 0 0 0-.098-.676c-.532-.391-.817-.963-.848-1.699a.75.75 0 0 0-.43-.646.787.787 0 0 0-.794.071c-.524.374-1.358.526-1.369.528-3.946.718-5.061 3.054-5.32 3.793-.285.163-.84.512-1.346 1.024-.782.79-1.153 1.66-1.095 2.551l-.62.467c-1.135.79-1.805 1.754-1.991 2.862-.181 1.076.141 2.04.433 2.647A1.88 1.88 0 0 0 19 22.78v1.547c0 .93.696 1.705 1.604 1.85l5.26 9.57c.13.236.428.323.668.197.24-.127.33-.42.2-.655l-4.994-9.088h15.523l-6.714 12.219c-.21.384-.602.613-1.047.613-.445 0-.836-.23-1.047-.613l-.635-1.156a.498.498 0 0 0-.668-.196.478.478 0 0 0-.2.654l.634 1.156A2.152 2.152 0 0 0 29.5 40c.814 0 1.53-.419 1.915-1.12l6.98-12.702c.909-.145 1.605-.92 1.605-1.85v-1.547c0-.735-.435-1.373-1.066-1.68zM24.23 13.18c.344-.35.724-.616.982-.776l.003.002c.042.038.086.073.13.108l.02.015c.162.124.34.229.525.318.668.322 1.338.394 2.065.44.803.05 1.613.134 2.397.214l.65.066c.252.025.504.048.757.072.643.06 1.309.121 1.956.208.201.028.389.055.566.083.411.066.823.147 1.225.25.434.11.866.251 1.255.486.282.17.484.347.619.542.179.26.234.71.147 1.206a8.3 8.3 0 0 1-.117.556c-2.579-.71-11.065-.897-12.09-.917h-.024c-1.422.036-1.743-.525-1.779-.597-.243-.778-.004-1.544.713-2.276zm-.704 2.304v-.003l-.006-.016.006.02zm-2.72 3.036c.145-.843.682-1.593 1.595-2.228a.319.319 0 0 0 .015-.011l.313-.235c.26.383.94 1.011 2.581.973.19.004 2.772.059 5.515.207 4.466.241 5.982.54 6.493.724.29.206.624.524.803.973.22.554.167 1.211-.159 1.958l-14.646.027H21.32c-.235-.403-.69-1.35-.513-2.388zm18.208 5.808c0 .5-.416.908-.926.908H20.913a.918.918 0 0 1-.926-.908v-1.547c0-.5.415-.907.926-.907h.073c.021.003.042.004.063.004l2.273-.004h14.766c.51 0 .926.407.926.907v1.547z"/></g></g></symbol><symbol id="catalog-icon-drinks" viewBox="0 0 58 46"><title>menu_icon4</title><g fill="none" fill-rule="evenodd"><mask id="b" fill="#fff"><use xlink:href="#a"/></mask><g mask="url(#b)" fill="#FFF" fill-rule="nonzero"><path d="M38.993 5.43a.51.51 0 0 0-.587-.423l-4.305.721a.88.88 0 0 0-.695.603l-.989 3.088H21.452c-.43 0-.813.259-.975.66-.241.597-.52 1.696-.472 3.537.06 2.265.597 5.03 1.598 8.215 1.952 6.208 1.41 12.338.951 15.29l-.041.259-.013.078c-.022.132-.044.262-.068.391a1.828 1.828 0 0 0 1.1 2.015c.215.089.447.136.686.136h8.83a1.806 1.806 0 0 0 1.393-.657c.345-.416.488-.96.392-1.494a30.026 30.026 0 0 1-.062-.356l-.01-.063a37.398 37.398 0 0 1-.385-3.219.512.512 0 0 0-.547-.473.512.512 0 0 0-.47.551c.043.58.1 1.154.168 1.72a.787.787 0 0 1-.48.162h-8.829a.787.787 0 0 1-.477-.161c.434-3.555.58-8.938-1.165-14.49-1.21-3.847-1.547-6.508-1.552-8.272h1.128l-.885 1.545a.7.7 0 0 0 .253.95l2.209 1.285a.69.69 0 0 0 .944-.255l1.276-2.224a.7.7 0 0 0-.253-.951l-.603-.35h3.278c.282 0 .51-.23.51-.514a.512.512 0 0 0-.51-.514h-7.308c.077-.93.25-1.485.36-1.755a.03.03 0 0 1 .029-.018h10.636l-.568 1.773h-.775c-.282 0-.51.23-.51.514 0 .284.228.514.51.514h5.5c0 .11-.002.224-.005.341-.056 2.17-.578 4.838-1.55 7.932-.996 3.168-1.48 6.635-1.439 10.304a.512.512 0 0 0 .51.508h.006a.512.512 0 0 0 .505-.52c-.04-3.56.427-6.918 1.39-9.982 1.344-4.273 1.654-7.177 1.594-9.074l.001-.023a.514.514 0 0 0-.005-.065c-.051-1.327-.285-2.148-.464-2.59a1.047 1.047 0 0 0-.974-.66h-2.325l.863-2.691 4.222-.707a.513.513 0 0 0 .419-.591zM23.437 38.03c.052-.29.104-.605.156-.943.197.073.408.11.625.11h8.83c.216 0 .427-.038.625-.11.048.318.1.633.156.943a.8.8 0 0 1-.782.941h-8.829a.794.794 0 0 1-.781-.94zM23.26 13.37l1.64.953-.947 1.65-1.64-.952.947-1.651zm12.553-2.922a.03.03 0 0 1 .03.018c.117.29.286.848.362 1.755h-3.614l.568-1.773h2.654z"/><path d="M26.73 19.827a.753.753 0 0 0 1.062-.1l2.034-2.456a.749.749 0 0 0 .17-.552.75.75 0 0 0-.27-.51l-2.456-2.036a.755.755 0 0 0-1.062.1l-2.035 2.457a.748.748 0 0 0-.17.551c.02.201.115.382.27.51l2.457 2.036zm.099-4.649l1.992 1.651-1.65 1.993-1.993-1.65 1.651-1.994zM28.34 24.56l3.035 2.271a.84.84 0 0 0 .628.16.84.84 0 0 0 .557-.33l2.271-3.036a.842.842 0 0 0 .16-.628.84.84 0 0 0-.33-.557l-3.036-2.272a.848.848 0 0 0-1.185.171l-2.272 3.036a.848.848 0 0 0 .171 1.185zm2.84-3.282l2.542 1.902-1.902 2.541-2.542-1.901 1.902-2.542zM32.64 16h.023l1.79-.071a.57.57 0 0 0 .547-.592l-.071-1.79a.572.572 0 0 0-.592-.547l-1.79.071a.57.57 0 0 0-.547.592l.071 1.79a.57.57 0 0 0 .57.547zm1.417-2.103l.046 1.16-1.16.046-.046-1.16 1.16-.046zM26.232 20.003l-1.75.177a.533.533 0 0 0-.48.588l.178 1.75a.533.533 0 0 0 .588.48l1.75-.179a.533.533 0 0 0 .48-.587l-.178-1.75a.538.538 0 0 0-.588-.48zm-1.262 2.146l-.12-1.178 1.18-.12.12 1.179-1.18.12z"/></g></g></symbol><symbol id="catalog-icon-pizza" viewBox="0 0 58 46"><title>menu_icon1</title><g fill="none" fill-rule="evenodd"><mask id="b" fill="#fff"><use xlink:href="#a"/></mask><g fill="#FFF" fill-rule="nonzero" mask="url(#b)"><path d="M16.695 9.072l-.128.238a33.322 33.322 0 0 0-3.805 12.815 33.54 33.54 0 0 0 1.373 12.847l.01.034a2.31 2.31 0 0 0 2.872 1.524l1.761-.534a2.284 2.284 0 0 0 1.362-1.121c.29-.546.35-1.17.168-1.758l-.01-.032a.977.977 0 0 1 .072-.75l.006-.01a.992.992 0 0 1 .609-.484l3.694-1.03c.375-.106.684-.35.87-.69l.008-.015c.179-.337.215-.723.102-1.09a1.492 1.492 0 0 0-1.814-.99l-2.66.741c-.237.066-.49-.058-.563-.277a.436.436 0 0 1 .298-.564l.837-.233a1.458 1.458 0 0 0 1.047-1.729 1.448 1.448 0 0 0-.679-.924 1.466 1.466 0 0 0-1.136-.15l-.607.169a.998.998 0 0 1-.893-.18.984.984 0 0 1-.38-.817 26.874 26.874 0 0 1 3.275-11.932c.295-.54.356-1.16.178-1.748a2.29 2.29 0 0 0-1.125-1.366l-1.642-.873a2.305 2.305 0 0 0-3.1.93zm4.267.836a1.28 1.28 0 0 1 .53 1.737l-.118.221a27.87 27.87 0 0 0-3.28 12.155 1.988 1.988 0 0 0 .768 1.652 2.005 2.005 0 0 0 1.796.36l.607-.17a.44.44 0 0 1 .55.327c.053.225-.097.462-.335.529l-.837.233c-.38.106-.705.367-.89.715v.001c-.188.354-.22.758-.093 1.14.247.736 1.038 1.146 1.802.933L24.12 29a.474.474 0 0 1 .569.31.417.417 0 0 1-.287.526l-3.695 1.032a1.993 1.993 0 0 0-1.234.991 1.975 1.975 0 0 0-.146 1.519l.003.01.002.007.006.017c.101.33.068.68-.095.987-.163.306-.435.53-.764.63l-1.762.535a1.29 1.29 0 0 1-1.604-.853l-.01-.033a32.528 32.528 0 0 1-1.333-12.461 32.323 32.323 0 0 1 3.815-12.66 1.29 1.29 0 0 1 1.734-.521l1.642.873z"/><path d="M24.064 11.8a.504.504 0 0 0 .194.685l21.49 11.427a.368.368 0 0 1 .192.374.393.393 0 0 1-.27.336l-23.809 7.802a.529.529 0 0 0-.341.642.48.48 0 0 0 .616.328l23.81-7.803c.36-.118.649-.365.82-.687.086-.162.143-.344.164-.537.064-.577-.204-1.099-.7-1.362L24.74 11.578a.504.504 0 0 0-.676.222z"/><path d="M20.716 15.08a2.132 2.132 0 0 0 .873 2.881 2.132 2.132 0 0 0 2.878-.887 2.132 2.132 0 0 0-.873-2.882 2.132 2.132 0 0 0-2.878.887zm2.891 1.537c-.3.562-.998.778-1.558.48a1.154 1.154 0 0 1-.473-1.56c.3-.563.998-.778 1.558-.48.56.297.772.997.473 1.56zM28.585 28.934a2.132 2.132 0 0 0 2.878-.887 2.132 2.132 0 0 0-.873-2.882 2.132 2.132 0 0 0-2.878.887 2.132 2.132 0 0 0 .873 2.882zm.056-2.388c.279-.525.93-.726 1.453-.448.522.277.72.93.44 1.455-.278.525-.93.726-1.452.448a1.077 1.077 0 0 1-.441-1.455zM31.387 19.141a2.132 2.132 0 0 0 .873 2.882 2.132 2.132 0 0 0 2.878-.887 2.132 2.132 0 0 0-.874-2.882 2.132 2.132 0 0 0-2.877.887zm2.854 1.518c-.289.542-.962.75-1.502.463a1.112 1.112 0 0 1-.455-1.504c.288-.542.961-.75 1.501-.463.54.287.744.962.456 1.504zM38.903 21.526c-1.019-.541-2.332-.07-2.927 1.05l-.178.334c-.596 1.12-.252 2.472.767 3.014.441.235 1.011.03 1.27-.455l.063-.12.314.192a.8.8 0 0 0 .666.07.971.971 0 0 0 .544-.468l.431-.811a.97.97 0 0 0 .083-.712.798.798 0 0 0-.43-.514l-.334-.153.064-.12c.258-.485.109-1.072-.333-1.307zm-.722 1.291a.743.743 0 0 0-.064.546c.05.177.17.32.33.393l.522.24-.32.601-.491-.299a.61.61 0 0 0-.51-.052.742.742 0 0 0-.417.357l-.209.394c-.54-.308-.718-1.039-.395-1.646l.178-.335c.323-.607 1.028-.868 1.585-.592l-.21.393zM22.442 20.883c-.726 1.364-.282 3.023.989 3.699l.393.209c1.27.675 2.894.115 3.619-1.249.3-.565.117-1.251-.409-1.53l-.226-.12.315-.528c.149-.25.196-.548.131-.822a.962.962 0 0 0-.478-.629l-.953-.506a.962.962 0 0 0-.789-.045 1.114 1.114 0 0 0-.607.568l-.261.556-.226-.12c-.526-.28-1.198-.048-1.498.517zm2.9-.481l.878.467-.461.773a.83.83 0 0 0-.098.61.716.716 0 0 0 .356.47l.498.264c.025.014.034.046.02.073-.44.826-1.423 1.165-2.193.756l-.393-.209c-.77-.409-1.038-1.414-.599-2.24.014-.027.046-.038.071-.025l.499.265a.716.716 0 0 0 .587.033.829.829 0 0 0 .452-.423l.383-.814z"/></g></g></symbol><symbol id="catalog-icon-salads" viewBox="0 0 58 46"><title>menu_icon3</title><g fill="none" fill-rule="evenodd"><mask id="b" fill="#fff"><use xlink:href="#a"/></mask><g mask="url(#b)" fill="#FFF" fill-rule="nonzero"><path d="M44.962 31.379h-.456c-.184-.202-.453-.367-.75-.548-.344-.21-.733-.447-.88-.698-.058-.098-.034-.423-.018-.66.037-.505.078-1.077-.275-1.513-.301-.375-.799-.456-1.28-.534-.31-.05-.66-.107-.802-.237-.172-.158-.273-.507-.372-.844-.14-.482-.286-.98-.705-1.257-.497-.328-1.101-.257-1.635-.194-.271.032-.61.071-.743.01-.307-.139-.563-.503-.787-.824l-.039-.055a1.232 1.232 0 0 0-1.825-.206c-.437.371-.827.76-1.17 1.165a2.107 2.107 0 0 0-1.665-1.605l.123-4.154a.466.466 0 0 0-.455-.477.466.466 0 0 0-.483.45l-.134 4.513a.54.54 0 0 0 .547.557c.648 0 1.176.52 1.176 1.16v.817a7.463 7.463 0 0 0-.481 1.007 4.256 4.256 0 0 0-.34.04v-.5a.466.466 0 0 0-.47-.463c-.259 0-.469.207-.469.463v.761a4.267 4.267 0 0 0-.821.445v-1.206a.467.467 0 0 0-.47-.463.467.467 0 0 0-.469.463v1.775a1.736 1.736 0 0 0-.463-.224 1.503 1.503 0 0 0-.358-.062v-2.854c0-.639.527-1.159 1.175-1.159h.027a.541.541 0 0 0 .548-.558l-.088-2.766v-.008l-.351-11.134a.835.835 0 0 1 .241-.616.86.86 0 0 1 .62-.259.86.86 0 0 1 .618.258c.163.166.249.385.242.615l-.244 7.484a.466.466 0 0 0 .454.478.465.465 0 0 0 .484-.448l.244-7.486a1.749 1.749 0 0 0-.507-1.289c-.342-.348-.8-.539-1.291-.539-.492 0-.951.192-1.293.54a1.748 1.748 0 0 0-.507 1.291l.33 10.444a2.395 2.395 0 0 0-.306-.046c-.844-.055-1.718.378-2.173 1.08-.298.459-.324.89-.343 1.205a1.44 1.44 0 0 1-.035.29c-.06.001-.23-.067-.331-.108-.302-.123-.715-.292-1.178-.143-.854.274-1.308 1.418-1.406 2.52-.342.164-.514.227-.676.148-.168-.082-.238-.279-.347-.62-.135-.421-.319-.999-.93-1.36-.94-.557-2.015-.1-2.06-.08-.775.337-1.345 1.122-1.419 1.953-.047.541.132.935.263 1.223.04.089.1.22.106.273-.055.03-.235.045-.344.055-.325.029-.77.069-1.11.412-.402.405-.527 1.099-.353 1.954a.47.47 0 0 0 .92-.183c-.119-.584-.034-.984.103-1.122.092-.093.26-.114.525-.138.354-.031.84-.075 1.092-.545.222-.417.053-.788-.083-1.086-.108-.237-.21-.462-.183-.763.044-.496.398-.983.86-1.184.006-.003.68-.282 1.2.025.291.172.387.433.518.845.13.407.291.913.828 1.173.598.29 1.14.029 1.536-.163.066-.031.132-.064.198-.092.255-.114.363-.115.447-.083.348.136.458 1.015.546 1.722.128 1.025.261 2.084 1.097 2.409.144.056.283.079.417.079.41 0 .775-.218 1.082-.402.146-.087.285-.17.42-.23a.47.47 0 0 0 .197-.068.565.565 0 0 1 .304.005c.12.036.243.115.36.226a4.13 4.13 0 0 0-.503 1.923h-4.255a7.07 7.07 0 0 1-2.93-4.33.47.47 0 0 0-.916.196 7.992 7.992 0 0 0 2.358 4.134h-3.569a3.797 3.797 0 0 1-.97-.978.473.473 0 0 0-.652-.12.46.46 0 0 0-.122.644c.112.161.23.311.355.454h-2.195c-.572 0-1.038.46-1.038 1.024v1.212c0 .565.466 1.025 1.038 1.025h.251c.833 0 1.572.551 1.799 1.341l.287 1.003C17.716 38.17 18.827 39 20.078 39h19.854c1.274 0 2.39-.849 2.715-2.065l.247-.921A1.866 1.866 0 0 1 44.7 34.64h.26c.573 0 1.039-.46 1.039-1.025v-1.212c0-.565-.466-1.024-1.038-1.024zM26 28.983c-.316-.123-.427-1.011-.508-1.66-.132-1.048-.267-2.132-1.134-2.47a1.204 1.204 0 0 0-.45-.082c.14-.771.47-1.26.71-1.337.127-.04.285.018.53.119.33.134.78.317 1.224.016.393-.267.418-.673.438-.999.016-.26.03-.505.196-.76.272-.42.816-.69 1.317-.656.003 0 .182.014.402.09l.067 2.13a2.098 2.098 0 0 0-1.738 2.054v3.085c-.137.07-.265.146-.384.217-.324.193-.53.307-.67.253zm9.012-4.464l.012-.01a.284.284 0 0 1 .223-.073.282.282 0 0 1 .202.119l.038.053c.279.398.626.894 1.168 1.14.373.169.816.117 1.245.066.39-.045.794-.093 1.002.045.134.088.24.451.325.743.128.437.272.932.634 1.265.349.321.849.403 1.29.474.247.04.621.101.697.196.125.155.098.535.074.87-.03.417-.06.847.142 1.192.19.322.497.568.815.78h-2.62c-.033-2.29-1.93-4.141-4.257-4.141-.665 0-1.318.153-1.907.444a4.273 4.273 0 0 0-1.242-.393c.448-1.003 1.171-1.933 2.159-2.77zm1.437 6.86a4.129 4.129 0 0 0-.272-1.42c.723.092 1.288.689 1.318 1.42h-1.046zm1.985 0c-.033-1.307-1.12-2.36-2.453-2.36-.1 0-.2.006-.298.018a4.262 4.262 0 0 0-.655-.728 3.37 3.37 0 0 1 .974-.144c1.81 0 3.286 1.436 3.319 3.214h-.887zm-6.243-3.214c1.81 0 3.286 1.436 3.32 3.214h-.847c-.033-1.307-1.12-2.36-2.452-2.36-1.332 0-2.42 1.053-2.452 2.36h-.888c.034-1.778 1.51-3.214 3.32-3.214zm1.534 3.214h-3.027a1.507 1.507 0 0 1 1.514-1.433c.814 0 1.48.637 1.513 1.433zm10.976 2.334h-25.03c-.258 0-.469.207-.469.463s.21.464.47.464h22.934a2.754 2.754 0 0 0-.62 1.137l-.246.922a1.866 1.866 0 0 1-1.808 1.374H20.078a1.873 1.873 0 0 1-1.8-1.342l-.287-1.002c-.34-1.187-1.452-2.016-2.702-2.016h-.25a.099.099 0 0 1-.1-.098v-1.212c0-.053.044-.097.1-.097h29.923c.055 0 .1.044.1.097v1.212a.099.099 0 0 1-.1.098h-.26z"/></g></g></symbol><symbol id="catalog-icon-snacks" viewBox="0 0 58 46"><title>menu_icon2</title><g fill="none" fill-rule="evenodd"><mask id="b" fill="#fff"><use xlink:href="#a"/></mask><g mask="url(#b)" fill="#FFF" fill-rule="nonzero"><path d="M43.446 29.51v-1.145c0-.069-.005-.137-.012-.205.113-.068.218-.142.313-.225.421-.365.644-.846.643-1.392a1.93 1.93 0 0 0-.469-1.257 1.51 1.51 0 0 0 .359-.998 1.537 1.537 0 0 0-1.029-1.415c.122-.254.19-.539.19-.84V21.7A1.68 1.68 0 0 0 45 20.026c0-.129-.027-3.172-2.371-6.062-1.192-1.469-2.77-2.632-4.69-3.458C35.619 9.508 32.78 9.001 29.5 9c-4.128.001-7.538.801-10.134 2.376a.456.456 0 0 0 .471.78c2.452-1.489 5.703-2.244 9.664-2.245 3.154.001 5.873.483 8.081 1.432 1.783.767 3.244 1.842 4.342 3.195 2.143 2.642 2.167 5.373 2.167 5.488a.768.768 0 0 1-.766.768H15.676a.768.768 0 0 1-.766-.768c0-.115.015-1.16.535-2.597a9.937 9.937 0 0 1 2.75-4.062.456.456 0 0 0-.606-.68C14.04 15.863 14 19.857 14 20.026c0 .886.69 1.613 1.559 1.674v.334c0 .303.07.59.193.846a1.58 1.58 0 0 0-.595.38c-.29.295-.444.68-.437 1.086.007.351.132.68.346.94a1.93 1.93 0 0 0-.468 1.257c0 .546.222 1.027.643 1.392.101.087.213.166.334.237-.006.064-.01.128-.01.193v1.145A1.68 1.68 0 0 0 14 31.184C14 34.943 17.053 38 20.806 38h17.388C41.947 38 45 34.943 45 31.184a1.68 1.68 0 0 0-1.554-1.674zm-.294-2.264c-.418.362-1.185.513-2 .393-.579-.085-.883-.246-1.205-.416-.074-.04-.148-.08-.226-.118l1.033-1.053a.694.694 0 0 1 .492-.207h1.48c.141 0 .28-.019.416-.057.212.189.338.464.339.755 0 .278-.11.514-.329.703zm-26.684-5.541h26.064v.329c0 .353-.178.666-.448.854l-.024.015a1.02 1.02 0 0 1-.059.036l-.02.012a1.054 1.054 0 0 1-.177.074l-.01.003a.904.904 0 0 1-.177.037c-.009 0-.017.002-.026.003a1.006 1.006 0 0 1-.097.005H17.506a1.04 1.04 0 0 1-1.038-1.039v-.33zm-.662 2.193a.661.661 0 0 1 .468-.198h.221c.295.18.64.284 1.011.284h23.988c.04 0 .08-.002.12-.004l.038-.003.083-.01a1.922 1.922 0 0 0 .146-.023 1.846 1.846 0 0 0 .169-.043l.057-.017a2.076 2.076 0 0 0 .147-.055l.054-.025c.017-.007.034-.015.05-.024.018-.009.036-.017.053-.027l.06-.033.035-.02h.248a.62.62 0 0 1 .617.605.624.624 0 0 1-.362.563.644.644 0 0 1-.283.067h-1.48c-.426 0-.842.174-1.141.479l-1.844 1.88a1.294 1.294 0 0 1-1.762.075l-2.388-2.05a1.6 1.6 0 0 0-1.04-.384H16.245a.615.615 0 0 1-.616-.606.598.598 0 0 1 .176-.431zm-.298 2.645c0-.29.125-.563.335-.752.13.036.265.054.403.054H33.07c.165 0 .325.06.45.167l1.888 1.62a3.158 3.158 0 0 1-.118.002c-.599 0-.871-.163-1.215-.37-.39-.233-.833-.499-1.683-.499-.85 0-1.292.266-1.683.5-.344.206-.616.37-1.215.37-.599 0-.87-.164-1.215-.37-.39-.234-.833-.5-1.683-.5-.85 0-1.292.266-1.682.5-.345.206-.617.37-1.216.37-.598 0-.87-.164-1.215-.37-.39-.234-.832-.5-1.683-.5-.898 0-1.336.233-1.76.458-.322.17-.626.331-1.203.416-.817.12-1.583-.031-2.001-.393a.897.897 0 0 1-.328-.703zM38.194 37.09H20.806c-3.251 0-5.896-2.649-5.896-5.905 0-.423.344-.768.766-.768h20.388a.455.455 0 0 0 0-.91h-19.59v-.998c.258.054.534.082.82.082.22 0 .446-.016.675-.05.733-.107 1.139-.322 1.497-.512.37-.197.662-.352 1.335-.352.598 0 .87.163 1.215.37.39.234.832.5 1.683.5.85 0 1.292-.266 1.682-.5.345-.207.617-.37 1.215-.37.6 0 .871.163 1.216.37.39.234.832.5 1.682.5s1.293-.266 1.683-.5c.344-.207.616-.37 1.215-.37.599 0 .87.163 1.215.37.39.234.833.5 1.683.5.405 0 .744-.06 1.07-.186a2.201 2.201 0 0 0 2.55-.428l.128-.13c.17.06.32.139.484.226.359.19.765.405 1.498.513.229.033.455.05.675.05.294 0 .577-.03.842-.088v1.002h-4.356a.455.455 0 0 0 0 .911h5.143c.422 0 .767.345.767.768 0 3.256-2.646 5.905-5.897 5.905z"/></g></g></symbol><symbol id="temp-icon-left-arrow" viewBox="0 0 31.494 31.494"><path d="M10.273 5.01a1.117 1.117 0 0 1 1.587 1.57l-8.047 8.047h26.554c.62 0 1.127.492 1.127 1.11 0 .62-.508 1.128-1.127 1.128H3.813l8.047 8.032c.43.444.43 1.16 0 1.587a1.112 1.112 0 0 1-1.587 0L.32 16.532a1.12 1.12 0 0 1 0-1.57l9.953-9.953z" fill="#1E201D"/></symbol><symbol id="temp-icon-right-arrow" viewBox="0 0 31.49 31.49"><path d="M21.205 5.007a1.117 1.117 0 0 0-1.587 1.57l8.047 8.048H1.11c-.618 0-1.11.493-1.11 1.112 0 .62.492 1.127 1.11 1.127h26.555l-8.047 8.032c-.43.444-.43 1.16 0 1.587.444.444 1.16.444 1.587 0l9.952-9.952a1.092 1.092 0 0 0 0-1.57l-9.952-9.95z" fill="#1E201D"/></symbol></svg>